/* XPM */
static char *ZG9vcl8z[] = {
/* columns rows colors chars-per-pixel */
"64 64 213 2 ",
"   c #0C090D",
".  c #161209",
"X  c #1A160A",
"o  c #1D180C",
"O  c #130D12",
"+  c #170E1B",
"@  c #1A0F1E",
"#  c #191614",
"$  c #1E1A11",
"%  c #19101C",
"&  c #201D16",
"*  c #231C1C",
"=  c #2A1C18",
"-  c #27211C",
";  c #34251A",
":  c #3A2818",
">  c #3C2919",
",  c #3D391B",
"<  c #251C21",
"1  c #2D1E27",
"2  c #3C1C23",
"3  c #2E1E36",
"4  c #2F1E38",
"5  c #301F39",
"6  c #252221",
"7  c #2A2324",
"8  c #2C262B",
"9  c #28272C",
"0  c #332927",
"q  c #322D2C",
"w  c #383629",
"e  c #2B2730",
"r  c #2D2A33",
"t  c #352336",
"y  c #312C34",
"u  c #33223C",
"i  c #342D3A",
"p  c #382E3E",
"a  c #363134",
"s  c #3D3735",
"d  c #36323D",
"f  c #39333C",
"g  c #422D17",
"h  c #42271D",
"j  c #432B1B",
"k  c #4A2D1E",
"l  c #473719",
"z  c #4C331B",
"x  c #52351E",
"c  c #533A1B",
"v  c #5A3D1D",
"b  c #432421",
"n  c #4A2B21",
"m  c #493221",
"M  c #573921",
"N  c #413C3E",
"B  c #733229",
"V  c #3F401B",
"C  c #49451D",
"Z  c #544219",
"A  c #5D421C",
"S  c #62441E",
"D  c #654B1D",
"F  c #6A4E1E",
"G  c #6C511E",
"H  c #73551F",
"J  c #454927",
"K  c #4C5526",
"L  c #4E5628",
"P  c #4F5829",
"I  c #545826",
"U  c #51592A",
"Y  c #464836",
"T  c #4C5137",
"R  c #654A22",
"E  c #6C4D21",
"W  c #754225",
"Q  c #794725",
"!  c #6E5223",
"~  c #725523",
"^  c #775926",
"/  c #7C5C21",
"(  c #7C5F30",
")  c #57632A",
"_  c #5A652C",
"`  c #5E6C2C",
"'  c #5A6532",
"]  c #606D2D",
"[  c #7E6127",
"{  c #64732F",
"}  c #657531",
"|  c #6C7E33",
" . c #3A2344",
".. c #3C2A47",
"X. c #3D254B",
"o. c #373340",
"O. c #3B3444",
"+. c #3C3942",
"@. c #3F3549",
"#. c #3E3A49",
"$. c #42264D",
"%. c #422C4E",
"&. c #423E42",
"*. c #40364B",
"=. c #423A4D",
"-. c #442952",
";. c #442A53",
":. c #472B59",
">. c #492D5B",
",. c #463253",
"<. c #483154",
"1. c #443E52",
"2. c #4B345A",
"3. c #4C3A5B",
"4. c #50375E",
"5. c #4A2C63",
"6. c #4D3363",
"7. c #513566",
"8. c #533B63",
"9. c #593B64",
"0. c #543768",
"q. c #573E6A",
"w. c #5A3D6B",
"e. c #474449",
"r. c #44424C",
"t. c #464253",
"y. c #4A4455",
"u. c #4E4C56",
"i. c #4C4658",
"p. c #4D4B5B",
"a. c #514F54",
"s. c #514C5D",
"d. c #565552",
"f. c #53515E",
"g. c #554166",
"h. c #524F62",
"j. c #574069",
"k. c #5D436C",
"l. c #564868",
"z. c #555363",
"x. c #5B5664",
"c. c #5B5966",
"v. c #57546A",
"b. c #58566A",
"n. c #5D5A6B",
"m. c #5E5C72",
"M. c #60416F",
"N. c #605C6D",
"B. c #654671",
"V. c #674872",
"C. c #684873",
"Z. c #654C7A",
"A. c #615E71",
"S. c #636174",
"D. c #696777",
"F. c #6B6A76",
"G. c #65657A",
"H. c #6B6A7C",
"J. c #72717E",
"K. c #82392C",
"L. c #8D2D38",
"P. c #922A3A",
"I. c #8B3635",
"U. c #903B3A",
"Y. c #805F21",
"T. c #865B2B",
"R. c #8F4837",
"E. c #826224",
"W. c #856529",
"Q. c #88692C",
"!. c #8D6C30",
"~. c #8D7132",
"^. c #907435",
"/. c #967B39",
"(. c #962D43",
"). c #963244",
"_. c #A23152",
"`. c #B6346A",
"'. c #BE3E74",
"]. c #A0474A",
"[. c #BC466F",
"{. c #C4427B",
"}. c #6F8234",
"|. c #718436",
" X c #768C38",
".X c #788E39",
"XX c #7D943B",
"oX c #9D823C",
"OX c #839D3E",
"+X c #A2863E",
"@X c #859E40",
"#X c #AC9041",
"$X c #87A140",
"%X c #89A442",
"&X c #8AA542",
"*X c #8AA543",
"=X c #8BA642",
"-X c #8CA743",
";X c #8CA843",
":X c #705589",
">X c #6D6D82",
",X c #747484",
"<X c #767588",
"1X c #777688",
"2X c #7C7B8B",
"3X c #CA4B83",
"4X c #D2598B",
"5X c #D74A96",
"6X c #84838E",
"7X c #858591",
"8X c #E78D9D",
"9X c #E883A3",
"0X c #EC95A3",
/* pixels */
"&X&X&X&X&X&X&X&X&X&X&X-X XY w .X-X&X&X&X&X-XOX) l z : ) ;X%X&X&X&X&X&X&X&X$XC > l , { OX-X-X&X&X&X-X}.0 T XX-X&X&X&X&X&X&X&X&X&X",
"&X&X&X&X&X&X&X&X&X&X-X&XK a.d.} &X&X&X&XOX] C Z D c I OX%X&X&X&X&X%X&X&X&X&X.XC v D l Z { %X&X%X%X%X_ c.r.` -X&X&X&X&X&X%X&X&X&X",
"&X&X&X&X&X-X&X&X&X&X&X}.w ,XJ.K OX&X&XOXI l D H F C OX$X%X%X;X;X;X&X&X;X&X&X;X.XC G / A l ` %X%X%XXXT 2XS.V XX&X&X&X&X&X&X&X&X&X",
"&X&X&XXX X$X-X&X&X&X-X{ f H.D.c.' OXOXL z G H Y.c { &X$X;X%XXX{ ` ` { OX%X;X&X&X) A / H D l ` %XXX' n.F.S.w .X-X&X&X&X&X&X}.OX&X",
"&X&XOXK m XX&X-X&X&X-X} a z.t.m.N.T ` l F H H F C OX-XOX}.C C A D A Z C K  XOX;X Xl H / ! A l ' e.D.z.1.h.q .X&X&X&X&X&X}.w ' -X",
"&X&X| e.y.} &X&X&X&X;X} r y.O.=.b.z.w v G H E.A C ` ` I Z G H / / E./ H D Z ) ` _ C G [ G G c s n.z.@.@.y.w  X&X&X&X-X$XU i.Y XX",
"&X&XL t.H.e.} XX-X&X&X| q =.o.i a q > S S G / D ; q l G [ Y.E.~.^.^.~.Y.Y./ F > a : H ^ G A A ; a a i O.@.w XX&X&X-XXX_ u.J.d ` ",
"&X&XL +.<X,Xa.T ] | &XOXJ 8 a a y &.g A z F F D : , / ~.E.E.^.+X+X+XoX~.Y.E.~.G > g F G S z A : r.9 a a 7 ) $XOX{ _ Y f.2XH.i ` ",
"&X&XL r F.H.>XG.s.e.K J w r.N.c.o.y g A k v F M k D H E.Y.Q./.+X+X#X+X+XE.E.[ H A k A F x k S : d +.m.n.+.V J Y e.x.D.>XJ.x.8 ` ",
"&X&X{ 8 z.n.p.n.S.u.f r.n.n.z.f.t.6 > A b b c n R W W Q Y.E.!./.+X+XoXQ.E.Y.Q B Q c z x 2 n A ; r t.f.z.A.c.N &.z.m.b.f.m.y.w }.",
"&X&XOXw @.b.p.#.p a u.n.z.t.u.p.i.d - v n 2 2 b S (.`.L.Q Y.E.W.W.W.E.Y.Y.B (.`.U.v b 2 2 M z - o.p.u.p.t.v.c.e.i O.*.s.z.f J &X",
"&X&XOXK p i.p.f y z.n.u.y.z.t.p.p.=.7 j v b 2 b B _.5X'.I.Q H Y.Y.Y./ / W (.3X5X).v 2 2 n v ; e r.f.u.u.f.t.f.m.u.r *.s.y.q ) &X",
"&X&X&X}.q #.u.9 r f.p.f.y.2Xc.r.y.y.d 8 k x b h S _.5X0X[.L.W D G G W B P.4X9X5XL.v b b c h e O.p.t.t.F.J.t.p.f.p.7 q i.o.w OX&X",
"&X&X&X$XK q y r.d O.p.p.t.J.7Xc.1.=.O.r 7 : h h S I.3X0X8X[.L.B j k B (.{.0X9X[.K.A : h ; 0 i @.#.t.F.7XS.t.p.i.o.+.r.y 9 ' &X&X",
"&X&X&X&X|.- r.n.p.+.+.i.=.z.7X2XJ.n.i.f +.a.0 = v T.].3X3X'.P.B D D K.(.{.4X{.R.^ x = a a.d o.s.S.,X6X2Xy.t.i.f #.f.m.f , XX&X&X",
"&X&X&X&X|.s m.z.f.p.O.d i #.S.<X>XH.>XS.n.A.1.8 j D Q.].U.K.R.W.E.W.T.K.R.R.R.Q.S ; y s.A.n.G.>XG.>X<Xv.o.d d #.f.p.v.z.J XX&X&X",
"&X&X&X$XP s.n.f.p.h.i.o.r p p.G.S.n.A.n.x.x.u.p = k S ~ ! G [ ^.^.^.~.~ G ~ ! v h 1 *.s.x.x.N.N.n.G.G.r.y r +.p.p.p.z.n.r.] -X-X",
"&X&X&X|.s i.S.,Xz.1.1.@.i r o.z.G.n.x.x.x.x.i.O.7 = 2 b c F G ^ / / ^ ! D z b 2 = q *.s.x.x.x.x.n.G.p.y r d =.1.t.n.1Xb.y.m XX-X",
"&X&X$XK e.u.f.7X2XG.z.#.o.r 9 d p.n.n.x.x.x.s.1.p - h 2 x ! G G F F E E ! n 2 h = O.1.f.x.x.x.n.b.p.y 9 i O.1.b.H.7X2Xy.p.#.' -X",
"&X&X}.s s.y.=.J.2X2X2X1XH.p.y.r.r.p.v.x.x.x.x.y.p l S j ( ^ ~ ^ A D [ R W.! > D > O.u.x.x.x.n.x.p.r.r.t.f.>X<X<X2X2XG.&.p.p.J XX",
"&X;XU r.f.i.O.h.,X>X>X>X,X,X>XG.A.n.x.x.x.x.x.s.*.> > l ( m ~ ~ j x / R M ^ : l 0 1.f.x.x.c.x.c.m.A.G.,X,X,X>X>X,X>Xt.@.p.f.s ] ",
"&X&XU y.p.p.*.*.A.>Xm.A.x.n.x.n.x.x.x.x.x.x.x.c.u.q q > j * z j 7 7 m > = k ; q a f.x.x.x.z.x.x.c.c.c.x.b.c.A.A.>Xb.@.1.p.p.r.] ",
";X.XY i.i.f.y.O.i.G.G.S.x.x.y.+.&.+.+.+.+.+.&.+.+.d e & - 9 = = 8 8 = = 8 * * y f &.&.&.+.+.+.f +.+.#.s.x.x.A.>XS.y.@.i.f.i.y.J ",
";X| s p.t.i.i.=.*.h.G.A.x.y.i < * * * * * * * * * * $ o $ $ $ $ $ $ $ $ & $ X # * * * * * * - * # 6 6 o.s.x.H.A.i.@.#.p.y.t.p.q ",
";X| N p.y.1.i.1.*.*.h.A.p.i 4 3 5 t u ;.,.<.g.,.t 3 O X o o o o o o o o o o . @ 4 u 4.8.,.,.%.u u u u u o.z.S.i.@.@.1.y.3.t.h.a ",
";X| q +.f f f o.i y i &.r  .2.>.5.8.j.B.C.Z.:Xk.3 3 O X o o o o o o o o o o . + 4 u Z.:XZ.V.M.9.6.2.>.;.u r +.a y o.f f o.f f 7 ",
";XXXV - y y y q q y 6 $ < 3.Z.4.%.<.<.<.,.<.8.g.3 3 O X o o o o o o o o o o . % 4 u k.2.<.<.<.,.<.@.8.Z.@.* $ 8 i y 8 y a a - J ",
"&X&XP i i.i.1.y.i.s.y & t k.Z.%.%.%.%.%.%.%.,.8.3 3 O X o o o o o o o o o o . % 4 u q.-.%.%.%.%.;.X.;.:X8.7 $ o.h.y.y.1.i.r.q ` ",
"&X;XL i h.z.f.z.z.z.y $ t q.7.2.M.M.M.M.k.k.4.8.3 3 O X X X o o o o o o o o . % 4 t q.8.k.k.M.k.k.k.>.8.8.1 $ O.n.f.z.s.z.i.r ` ",
"%X&XL o.b.z.x.x.z.z.y $ t 2.;.j.V.V.C.C.V.V.9.8.3 3 O X o X o o o o o o o o . % 5 u q.9.C.C.C.C.C.V.q.;.2.1 $ @.v.z.x.x.n.z.i ` ",
"&X&XP #.v.z.x.x.z.h.i $ t 2.>.B.V.C.C.V.V.V.4.9.3 3 O X o o o o o o o o X $ . % 5 u q.9.C.C.C.C.C.V.k.;.2.1 & o.b.x.x.z.v.h.d ` ",
"&X&XP O.v.z.z.x.z.v.y $ t 2.>.V.C.V.V.V.V.V.4.9.3 3 O X o o o o o o o o o X . % 5 5 q.9.C.C.B.B.C.V.B.>.2.1 & o.x.z.z.z.n.h.a ` ",
"%X%XP #.A.c.x.f.z.v.i o t 2.>.B.V.V.w.M.C.B.8.8.3 3 O X o o o o o o o o o o . % 4 u q.9.C.C.B.k.C.C.w.>.2.1 & o.b.z.f.x.n.v.f ` ",
"-X&XP O.m.x.f.z.z.z.y $ t 2.>.B.C.M.7.w.C.B.8.8.3 3 O X o o o o o o o o o o . % 4 u q.9.C.C.0.7.B.C.w.>.2.1 & O.b.z.x.f.n.b.f ` ",
"&X&XP @.m.z.z.x.z.z.y $ t 2.5.B.C.w.5.0.C.B.9.8.3 3 O X o o o o o o o o o o . % 4 u q.9.C.C.7.5.B.B.B.>.2.1 & o.b.f.x.f.n.v.a ` ",
"&X&XP #.m.x.x.x.z.h.y & t 2.>.B.C.9.5.7.M.C.8.8.3 3 O X o o o o o o o o o o . % 4 u q.9.C.k.5.5.w.B.B.:.2.1 & O.b.z.x.x.n.v.f ` ",
"&X&XP O.m.z.z.x.z.z.r $ t 2.>.C.M.7.5.5.w.C.9.8.3 3 O X o o X o o o o o o o . % 4 u q.9.C.0.5.5.7.B.M.;.2.1 & o.x.z.x.x.n.v.d ` ",
"&X-XP #.m.n.x.x.z.v.i $ t 2.>.B.w.5.5.5.0.B.8.8.3 3 O X o o o o o o o o o o . % 4 u q.w.B.7.5.5.5.k.M.:.2.1 & O.n.z.x.x.n.v.d ` ",
"&X&XP #.m.x.x.x.z.z.y $ t 2.>.B.7.5.5.5.6.B.8.8.3 3 . X o o o o o o o o o o . % 4 u q.9.B.5.5.5.5.w.M.>.2.1 & o.b.z.x.z.n.b.f ` ",
"&X&XP #.m.b.x.x.z.v.r $ t 2.5.k.6.5.5.5.5.9.9.8.3 3 O X o o o o o o o o o o . % 4 u q.9.0.5.5.5.5.7.w.>.2.1 & O.n.z.x.x.n.v.f ` ",
"&X&XP @.v.z.z.z.z.v.r $ y 2.6.w.5.5.5.5.5.0.9.7.3 3 O X o o o o o o o o o o . @ 4 u q.8.7.5.5.5.5.5.q.:.2.1 & O.v.f.x.z.x.z.d ` ",
"&X&XP O.b.z.i.p.p.v.y $ t 2.>.7.5.5.5.5.5.5.4.8.3 3 O X o o o o o o o o o o . % 5 t q.4.5.5.5.5.5.6.7.:.2.9 & o.n.i.i.i.b.v.d ` ",
"&X&XP #.h.h.n.n.f.y.r $ t 2.:.5.5.5.5.5.5.5.2.8.3 3 O X o o o o o o o o o o . % 5 u q.>.5.5.5.5.5.5.5.:.2.1 * d p.f.n.b.z.s.d ` ",
"&X;XP O.t.p.G.H.p.#.e $ t 2.>.6.5.5.5.5.5.6.6.8.3 3 O X o o o o o o o o o o . % 5 5 q.4.5.5.5.5.5.5.6.;.2.1 $ r t.h.H.m.i.t.a ` ",
"&X&XP #.#.y.z.b.i.O.r $ t 2.>.w.5.5.5.5.5.0.9.8.3 3 O X o o o o o o o o o o . % 5 u q.8.7.5.5.5.5.6.w.>.2.7 $ i #.i.x.z.t.#.o.` ",
"&X&XP O.t.o.i.f.f *.r $ t 2.>.M.6.5.5.5.5.q.8.8.3 3 O X o o o o o o o o o o . % 5 u q.9.0.5.5.5.5.7.w.>.2.1 $ o.#.o.v.r.O.t.f ` ",
"&X&XP O.s.=.#.#.*.t.y $ t 2.5.B.0.5.5.5.6.M.8.8.3 3 O X o o o o o o o o o o . % 5 u q.9.B.5.5.5.5.w.B.:.2.1 $ o.y.#.r.+.t.p.f ` ",
"&X&XP +.s.s.z.c.s.y.y & t 2.>.B.w.5.5.5.7.B.8.8.5 3 O X o o o o o o o o o o . @ 4 u q.9.B.6.5.5.5.B.w.:.2.1 - f i.s.z.z.p.i.f ` ",
"&X;XU O.p.s.z.z.s.i.y $ t 2.>.B.B.6.5.5.w.C.8.8.5 3 O X o o o o X o o o o o . @ 4 u q.9.C.w.5.5.7.B.M.>.2.1 $ o.p.h.z.z.p.i.f ] ",
"&X&XP @.p.p.z.z.i.s.y $ u 2.>.B.V.0.5.6.B.C.8.8.3 3 O X o o o o o o o o o o . % 4 u q.9.C.k.5.5.w.C.M.>.2.1 & O.h.p.z.z.s.i.f ` ",
"&X&XP O.p.i.p.p.i.i.y o t 2.>.B.C.w.5.7.C.C.7.8.3 3 O X o o o o o o o o o o . % 4 u q.9.C.C.6.5.M.C.w.:.2.1 $ o.s.i.s.p.s.i.f ` ",
"&X&XP #.p.i.f.f.i.s.y $ t 2.:.q.V.M.6.q.C.B.2.4.3 3 O X o o o o o o o o o o . % 4 u 8.4.C.C.0.7.B.M.8.:.2.8 $ o.s.y.p.p.i.i.f ` ",
"&X&XP O.i.i.z.p.i.i.y $ t ,.;.j.j.k.g.l.k.k.,.4.3 3 O X X X o o o o o o o o . % 4 u 7.<.k.k.k.q.k.k.q.X.<.8 * O.i.u.f.i.y.y.f ` ",
"&X&XP @.i.y.p.u.i.s.r $ t <.;.j.g.l.g.8.g.8.,.2.3 3 O X o o o o o o o o o o . % 4 u 4.,.8.g.g.i.q.q.q.X.,.1 $ o.s.i.p.s.i.i.f ` ",
"&X&XU O.i.1.i.y.=.i.y $ u <.X.3.6.6.6.6.8.6...<.3 3 O X o o o o o o o o o o . @ 4 t ,.%.6.7.6.7.8.6.2. .,.1 $ O.u.=.i.y.y.i.d ` ",
"&X&XU o.i.1.1.=.=.t.r $ t <. .>.5.>.6.5.5.6.X.-.3 3 O X o o o o o o o o o o . @ 4 5 *.;.6.5.5.5.>.5.;. .2.1 $ o.t.*.=.1.1.1.i ` ",
"&X&XL i t.#.#.1.=.y.y $ u -. .$.$.;.;.$.>.>. .X.3 3 O X o o o o o o o o o o X % 5 5 X.X.>.:.$.-.-.$.$. .-.1 $ o.y.=.1.,.=.=.y ` ",
"&X&XL i t.#.3.t.=.t.y o t $. .$.$.$.$.$.$.$. .X.3 3 O X o o o o o o o o o o . % 5 5 X. .$.$.$.$.$.$.$. .-.8 * o.y.=.1.1.=.1.y ` ",
"&X&XL p 1.1.#.t.=.t.p & t  . .$.$.$.$.$.$.$.5  .3 3 O . o o o o o o o o o o . % 5 5 u  .$.$.$.$.$.$.$. .X.1 $ o.t.=.1.1.=.=.y ` ",
"&X&XP  .1.#.t.t.=.=.r o 5 X. .$.$.$.$.$.$.$. . .3 3 O o o o o $ X o X o o X . % 5 5  . .$.$.$.$.$.$.$. .X.1 $ d 1.=.1.1.=.=.q ` ",
"&X&XP i #.@.t.3.=.#.e $ t $.$.*.;.2.;.,.2.,. . .3 3 O $ $ $ & $ & $ & $ & $ # % 5 5  .X.<.:.<.:.;.:.<.X.X.1 $ d =.,.1.=.*.#.y ` ",
"&X&XL y O.o.@.@.@.@.9 $ 3 $.>.4.6.6.6.6.6.6.;. .3 3 % # 6 6 6 6 6 6 6 6 - 6 # % 5 5 X.:.6.6.2.6.6.2.6.;.X.1 & r #.*.*.*.O.O.0 ` ",
"&X&XL 9 o.d O.O.@.O.e * t $.$.$.$.$.$.$.X.$.X. .3 3 % e y r r y r y y y y i 9 % 4 4 X.$.$.$.$.$.$.$.%.$.$.t * r @.O.O.O.o.o.6 ` ",
"&X&XL $ 6 < 1 7 7 7 $ * < @ @ % @ @ @ @ @ @ @ + O O   - 1 7 7 7 7 7 7 7 6 8 #   O O @ @ % % @ @ @ @ @ @ @ * & - 7 6 7 6 6 6 & ` "
};
