/* XPM */
static char *ZG9vcl9jbG9zZQ__[] = {
/* columns rows colors chars-per-pixel */
"64 64 202 2 ",
"   c #050306",
".  c #0D070E",
"X  c #1D170D",
"o  c #1E190E",
"O  c #0D0911",
"+  c #130E16",
"@  c #1A0F1E",
"#  c #1F1911",
"$  c #16111B",
"%  c #1A1419",
"&  c #20180F",
"*  c #231A14",
"=  c #2C1B16",
"-  c #241B1B",
";  c #2A1D1B",
":  c #311D1B",
">  c #391E1E",
",  c #23201D",
"<  c #2E2618",
"1  c #362717",
"2  c #3C241B",
"3  c #3C2A1B",
"4  c #3C351B",
"5  c #1E1320",
"6  c #201224",
"7  c #271A2B",
"8  c #3C1C23",
"9  c #2F1E36",
"0  c #301E38",
"q  c #272323",
"w  c #2A2323",
"e  c #292726",
"r  c #2B272C",
"t  c #2D282D",
"y  c #312827",
"u  c #322C2D",
"i  c #343225",
"p  c #383726",
"a  c #38372A",
"s  c #3C3B2D",
"d  c #2D2B34",
"f  c #2F2937",
"g  c #332B33",
"h  c #36243A",
"j  c #342E3B",
"k  c #392F3F",
"l  c #373234",
"z  c #36313A",
"x  c #39343B",
"c  c #3C3939",
"v  c #432A1A",
"b  c #432A1B",
"n  c #4B2D1E",
"m  c #43321A",
"M  c #4C331C",
"N  c #473918",
"B  c #523B17",
"V  c #51341E",
"C  c #553B1B",
"Z  c #5A3D1E",
"A  c #401F22",
"S  c #432421",
"D  c #462923",
"F  c #492B20",
"G  c #4A3122",
"H  c #583C23",
"J  c #413E37",
"K  c #3F4223",
"L  c #49441C",
"P  c #544119",
"I  c #5D421D",
"U  c #61451D",
"Y  c #654A1D",
"T  c #694E1E",
"R  c #6C511E",
"E  c #71541F",
"W  c #434524",
"Q  c #464925",
"!  c #4D5324",
"~  c #4C542B",
"^  c #545B26",
"/  c #535D2A",
"(  c #464835",
")  c #664923",
"_  c #6E5121",
"`  c #6E502D",
"'  c #725522",
"]  c #765923",
"[  c #7C5D22",
"{  c #765A2A",
"}  c #566029",
"|  c #59652C",
" . c #5F6C2D",
".. c #5A6530",
"X. c #606E2D",
"o. c #7F612B",
"O. c #64732F",
"+. c #657531",
"@. c #677830",
"#. c #6A7C33",
"$. c #3B2445",
"%. c #362A43",
"&. c #3C2842",
"*. c #3E254B",
"=. c #3E2949",
"-. c #373341",
";. c #3B3444",
":. c #3D3A45",
">. c #3E3549",
",. c #3F3B49",
"<. c #3E2650",
"1. c #42264C",
"2. c #412C4D",
"3. c #413D45",
"4. c #40364B",
"5. c #423B4D",
"6. c #442751",
"7. c #442954",
"8. c #472D5A",
"9. c #482D5D",
"0. c #493255",
"q. c #443E52",
"w. c #493658",
"e. c #4C355B",
"r. c #513A5F",
"t. c #4A2C63",
"y. c #4D3362",
"u. c #4F3863",
"i. c #513662",
"p. c #563A67",
"a. c #533C65",
"s. c #563B68",
"d. c #593E6A",
"f. c #44424B",
"g. c #49464A",
"h. c #535548",
"j. c #464154",
"k. c #4A4455",
"l. c #4D4A55",
"z. c #4B4659",
"x. c #4D4B5B",
"c. c #514D5D",
"v. c #555453",
"b. c #53515F",
"n. c #554065",
"m. c #5A4167",
"M. c #524D62",
"N. c #5D426D",
"B. c #555363",
"V. c #5B5564",
"C. c #5A5666",
"Z. c #59576A",
"A. c #5C5A6B",
"S. c #5F4872",
"D. c #5E5E71",
"F. c #61456F",
"G. c #615E6E",
"H. c #654771",
"J. c #654973",
"K. c #684873",
"L. c #634C7A",
"P. c #694E7B",
"I. c #615E72",
"U. c #626174",
"Y. c #696977",
"T. c #6A6876",
"R. c #65657B",
"E. c #6B6A7D",
"W. c #73727D",
"Q. c #805F21",
"!. c #826224",
"~. c #86672A",
"^. c #8A6B2D",
"/. c #8E7132",
"(. c #947838",
"). c #6F8235",
"_. c #748937",
"`. c #778C38",
"'. c #7C933A",
"]. c #7F983C",
"[. c #9C803C",
"{. c #839C3E",
"}. c #A3873E",
"|. c #859F40",
" X c #AC9041",
".X c #86A040",
"XX c #89A542",
"oX c #070a00",
"OX c #8BA642",
"+X c #8CA743",
"@X c #8CA843",
"#X c #684E80",
"$X c #6C5384",
"%X c #705589",
"&X c #73588D",
"*X c #6C6C81",
"=X c #747384",
"-X c #787787",
";X c #7C7C8C",
":X c #7D7D90",
">X c #82828D",
",X c #878792",
/* pixels */
"oXoXoXoXoXoXoXoXoXoXoX .u / +XoXoXoXoX@XoX'.^ N m 1 O.@XoXoXoXoXoXoXoXoX.XL 3 N L O.{.oXoXoXoX+XoX{.p W _.oXoXoXoXoXoXoXoXoXoXoX",
"oXoXoXoXoXoXoXoXoX+X_.s G.~ {.+XoXoXoX'. .N C Y M ^ {.oXoXoXoXoXoXoXoXoXoX`.L C Y P L #.{.@XoXoXoX).h.B.Q {.oXoXoXoXoXoXoXoXoXoX",
"oXoXoXoXoXoXoXoXoXoX! l.;Xl.+.oXoXoX'.Q N Y [ U ^ {.oXoXoXoX@X@X@X+XoXoXoX@X'.N E E P N } .X@X+X.X/ G.-Xc @.oXoXoXoXoXoXoX@XoXoX",
"oX.X`.oXoXoXoX+XoX{.p V.W.T.h._.@X'.L C ' [ E N ).@XoX@XoX{.@.@.@.#..X+XoXoX+X} P !.E R N ^ .X.XO.v.E.=X3.^ @XoXoXoXoXoX.X`.oXoX",
"oX .s #.+X+XoXoXoX.Xp c.z.c.T.h.| / m T E Q.I ! oX@X{._.! L P P P P ! ^ '..X@X{.N R o.E U m O.~ V.T.k.M.4.^ @XoXoXoX+X+X| s _.oX",
"'.( l./ |.+XoXoXoX.Xp 5.5.4.x.U.g.G U _ [ Q.N / @.@.! P T E Q.!.Q.E R Y L | @.O.L Y !.E R Z a B.A.j.;.j.x } @XoXoXoX+X'.( j.| .X",
" .l *Xl...{.{.+XoX.XK -.4.%.k l < V U Y E Q.B y i N ' Q.Q.!.^././.^.!.Q.[ Y 3 a < T [ R U U 3 u x k %.5.g | oX@XoX.X`.( Z.I.i '.",
" .l E.;Xb.( X.#.{.@X).w g l e :.p B Z Z R R U 1 M [ ^.!.!.(.}.}.}.[./.!.!.^.E 3 3 T R Y V I b ( l u l t p {.oX`.@./ ( U.>XC.i '.",
"X.w b.-X*XE.B.f.~ ! W a x.U.f.-.< Z C F ) Y V n T ] !.Q.^.(. X}.}.}.(.!.Q.Q.' U n H T Z b I b g x b.D.f.i Q ~ K k.A.*X*X-X5.i '.",
"#.i k.U.M.Z.U.Z.3.l x.U.A.b.x.-., V Z A n Z n U U H E Q.!.^.}.}.}.}.^.!.Q.T H U Z n Z S S ) b q ,.b.B.D.D.f.x l.I.U.B.C.G.z K {.",
"+XQ %.C.c.,.;.g 3.C.D.z.l.x.x.f.q 3 ) 8 8 A n Z : : V E Q.!.~.~.^.~.Q.Q.) b = b I S A 8 n I ; d l.x.l.j.B.D.x.c k >.q.C.z.d @.@X",
"+X| d j.B.,.l ,.A.B.l.l.z.l.x.x.j ; V V 8 8 n H = X = V ' Q.Q.Q.Q.Q.E T b & X > Z A 8 A C b q 5.x.x.l.x.l.x.C.A.l k j.M.,.i ).oX",
"+X{.i x x.c , l.B.x.k.I.W.j.j.x.5.d 3 Z n A n H = X X = n U _ _ E T H A * X X b I S A V V 2 j z.x.j.b.-Xc.x.x.B.:., f.k.g ! @X@X",
"oXoX .t d 3.:.z j.c.k.C.,XW.l.,.,.%.d ; b b n Y n & X & & > D D n n : & X X = H I b b 2 w d ;.;.,.B.;X;Xz.z.x.f.g f.x l y `.oXoX",
"oX+X'.p u D.B.,.-.j.l.,.=X,X-XT.M.,.d :.3.: 2 Y ' D & & = S I I I Z > & X = H ] Z = y v.z z k.B.E.;X,XG.5.x.5.z k.C.B., } {.oXoX",
"oXoX{.Q b.A.x.b.,.-.-.%.x.=X=XE.*XE.A.G.G.3.w M ] !.H n n ) !.~.!.[ Z n n ) ~.) b t q.I.Z.U.*XE.E.-XE.f.z -.x k.c.b.D.f.| oXoXoX",
"oXoX+.5.A.c.x.x.c.5.d d >.I.*XA.A.D.V.V.V.q.g : V ) { E R Q.(./././.] E ] ] I n : k w.G.V.G.U.V.U.*Xb.z d j j.c.x.c.B.Z.K '.@XoX",
"oX{.W l.B.-XA.k.q.5.-.g f f.U.U.V.V.G.V.V.q.;.; = 8 n Z T ' [ [ !.[ T Y G S 2 * y 4.l.b.V.V.V.A.R.A.:.d f >.j.5.x.T.W.x.q./ @XoX",
"oX .J M.k.-X,XT.Z.5.-.j d d f.A.A.V.V.V.V.z.4.g < 2 8 H R R T T _ _ ) T F 8 2 ; k 5.v.G.V.G.V.G.B.-.r d z -.z.D.W.,XT.j.c.s _.@X",
"].Q z.x.4.G.,X;X;X=XW.C.f.,.,.j.B.A.V.V.G.c.5.g H H D ~.` ] ] Y Y { ` !.` b ) 4 %.k.b.G.b.V.A.z.f.:.f.j.D.=X-X:X:X>Xl.5.B.,.| oX",
"X.c B.x.:.5.*X-X*X*X=X=X=XE.T.D.G.V.V.V.b.b.c.l N 1 P { G { E n V !.) H o.1 N 3 5.b.V.G.V.V.V.G.D.*X*X-X-X=X*X*X-XD.;.q.x.c.s ].",
"X.f.x.x.q.>.Z.=XR.U.D.Z.V.A.Z.V.V.V.V.V.G.V.G.q.y r m b ; C b 7 : G m ; M 1 u i c.V.G.b.V.V.G.V.Z.Z.A.V.A.A.U.*X*Xk.>.z.x.x.s ].",
"W g.z.x.z.>.q.D.R.U.G.V.B.f.f.,.f.3.,.,.3.4.J 3.z r * q e = q d r - - d - * z -.3.3.J 4.,.3.3.3.:.f.l.V.V.G.R.R.B.>.,.x.c.z.J ..",
"u x.j.z.x.q.>.q.G.R.G.b.4.w % - - - - - - - - - - - * - 7 # # % # - - - 7 * - - - - - - w % , % , % r k.V.G.R.C.q.>.l.x.k.z.k.W ",
"l b.j.j.k.j.5.>.j.D.A.3.q 7 0 0 h 0 0 0 9 9 h 9 9 0 0 0 f 0 9   @ 9 h 9 9 0 0 0 0 0 0 0 0 0 h 9 9 f 7 d k.U.Z.5.>.,.j.j.q.k.l.W ",
"w 3.;.-.;.;.x h j 3.x 7 h 8.8.8.8.8.8.8.8.8.8.8.0.9.8.8.8.t.8.O 7 9.8.9.8.8.8.8.0.8.9.e.8.9.e.8.8.8.7.7 r f.x g j ;.;.-.>.:.x W ",
"L - t l t t t l e * * h m.L.L.L.w.2.>.<.2.2.2.4.>.2.2.2.a.S.S.$ f L.S.8.6.>.>.<.2.2.2.4.=.=.2.n.L.L.L.e.w # 7 t g g t g l q <  .",
"X.u 5.c.q.j.j.b.,., * 0.$X&X%Xn.2.2.2.2.2.2.2.2.7.=.6.=.N.&X$X$ %.&X&Xw.=.2.=.6.2.2.2.2.2.2.7.2.J.%X&XS.&.# r j.z.q.q.j.c.;.i '.",
"X.d j.B.M.B.b.Z.5., * 0.$X%Xn.2.s.N.N.N.m.N.m.N.N.N.N.e.N.&X$X$ %.&X%Xe.a.N.N.N.m.N.N.m.N.N.N.i.7.S.&XS.&.o r x.C.b.b.c.B.>.a '.",
"X.g M.A.B.C.B.A.,., - 0.$XJ.7.m.K.K.K.K.K.K.K.K.K.H.K.r.N.&X$X$ %.&X%Xr.N.J.K.K.K.K.K.K.K.J.J.H.r.0.P.L.&.# r x.C.V.C.B.D.q.a '.",
"X.l x.A.V.V.B.Z.5., - 0.$XN.r.H.K.K.K.K.K.K.K.K.K.K.K.r.N.&X$X$ %.&X%Xr.m.K.K.K.K.K.K.K.K.K.K.K.H.w.#XL.&.# r z.C.V.C.B.D.j.a `.",
"X.z M.Z.b.V.b.A.5., - 0.$XN.u.H.K.K.K.K.K.K.K.K.K.K.K.r.N.&X$X$ %.&X%Xr.m.K.K.K.K.K.K.H.K.K.K.H.H.e.#XS.&.# r x.C.B.C.x.D.j.a '.",
" .z B.D.b.b.b.A.5., - 0.$XN.r.K.K.K.K.H.s.d.K.K.K.K.H.r.d.&X$X$ %.&X%Xr.d.K.K.K.K.K.y.F.K.K.K.K.H.e.#XL.&.o r x.Z.M.b.B.U.z.a '.",
"X.z B.D.b.B.b.Z.5., - 0.$XN.r.H.K.K.K.F.y.t.H.K.K.K.H.i.S.&X$X$ %.&X%Xr.d.K.K.K.P.d.t.s.H.K.K.K.H.9.L.L.&.o r x.C.B.B.b.U.z.a '.",
"X.z B.A.b.V.V.Z.5., - 0.$XN.r.H.K.K.K.d.t.t.d.H.K.K.L.u.d.&X$X$ %.&X%Xi.d.K.K.K.K.y.t.t.d.K.K.K.H.w.#XL.&.o r M.C.V.B.b.U.z.a '.",
" .z C.D.V.V.B.A.5., - 0.$XN.a.K.K.K.H.t.t.t.t.H.K.K.L.s.d.&X$X$ %.&X%Xi.m.K.K.K.d.t.t.t.p.K.K.K.H.9.#XJ.&.% r z.B.C.V.B.U.j.a '.",
"X.z B.D.V.V.V.Z.5., * 0.$XN.r.H.K.K.s.t.t.t.t.s.K.K.K.r.d.&X%X$ &.&X%Xi.m.K.K.H.y.t.t.t.t.d.K.K.F.0.#XL.&.X r M.C.V.V.B.U.z.a '.",
"X.z C.A.V.V.b.A.5., - 0.$XN.r.H.K.F.t.t.t.t.t.t.F.K.K.r.N.&X%X$ &.&X%Xr.m.K.K.d.t.t.t.t.t.p.K.K.H.e.#XS.&.X r x.C.V.V.B.U.j.a '.",
"X.-.B.D.b.V.B.Z.5., - 0.$XN.e.K.K.d.t.t.t.t.t.t.a.K.H.r.N.&X$X$ %.&X%Xr.m.K.F.i.t.t.t.t.t.t.F.K.F.w.#XL.&.* r z.C.V.C.C.U.z.a '.",
"X.z B.D.V.V.V.C.5., - 0.$XN.r.K.H.t.t.t.t.t.t.t.i.F.K.r.d.&X%X$ %.&X%Xr.m.K.d.t.t.t.t.t.t.t.y.K.H.w.#XL.&.X r x.B.V.Z.B.U.z.a '.",
"X.z x.Z.C.C.B.Z.,., - 0.$XN.r.K.p.t.t.t.t.t.t.t.t.d.H.r.N.&X$X$ %.&X%Xe.d.F.i.t.t.t.t.t.t.t.t.F.H.e.#XL.%.o f z.C.B.V.B.Z.z.a '.",
"X.z M.A.z.z.z.Z.5., - 0.$XN.r.N.t.t.t.t.t.t.t.t.t.y.N.i.N.&X$X$ %.&X%Xi.N.d.t.t.t.t.t.t.t.t.t.s.N.e.#XS.&.% r M.B.l.z.x.A.z.a '.",
"X.z x.B.Z.A.B.x.-., - 0.$XN.i.N.t.t.t.t.t.t.t.t.t.t.d.r.N.&X$X$ &.&X%Xi.d.i.t.t.t.t.t.t.t.t.t.t.N.e.P.S.&.o r ,.x.C.D.M.C.j.a '.",
" .x j.z.Z.*XC.k.z , - 0.$XN.u.N.y.t.t.t.t.t.t.t.t.y.N.r.N.&X$X$ %.&X%Xr.d.d.t.t.t.t.t.t.t.t.t.i.N.e.P.L.&.o e -.x.D.*XM.j.,.a '.",
"X.z ,.j.B.V.c.f.f , - 0.$XN.i.H.s.t.t.t.t.t.t.t.t.p.H.i.d.&X$X$ %.&X%Xi.d.F.y.t.t.t.t.t.t.t.t.N.H.e.$XS.&.# e -.k.B.C.z.,.q.a '.",
"X.z k.:.,.A.:.,.;., - 0.$XN.r.K.H.t.t.t.t.t.t.t.t.H.H.i.N.&X%X$ %.&X%Xi.m.K.d.t.t.t.t.t.t.t.i.K.H.w.P.L.&.o r ,.x j.Z.-.,.j.c '.",
"X.z z.k.:.,.:.j.;., - 0.$Xd.a.K.K.s.t.t.t.t.t.t.s.K.L.a.N.&X$X$ %.&X%Xe.m.K.H.i.t.t.t.t.t.t.d.K.H.e.#XS.&.# r f.f.3.,.,.x.j.a '.",
" .z x.x.b.B.M.z.>.q - 0.$XN.i.K.K.d.t.t.t.t.t.t.N.K.H.a.d.&X$X$ %.&X%Xi.m.K.K.d.t.t.t.t.t.y.K.K.H.w.#XL.&.# r j.z.B.C.x.x.j.a '.",
"X.l z.c.B.V.b.z.,., - 0.$XN.i.K.K.K.a.t.t.t.t.s.H.K.K.i.N.&X$X$ %.&X%Xr.m.K.K.H.i.t.t.t.y.m.K.K.N.r.L.H.&.o r k.z.B.V.c.c.j.a '.",
"X.z z.z.c.b.x.c.,.- - 0.$XN.r.K.K.K.F.y.t.t.t.H.K.K.H.r.N.&X$X$ %.&X%Xi.m.K.K.K.d.t.t.t.a.K.K.K.H.w.#XL.&.o r k.c.c.B.x.c.j.a '.",
"X.x z.c.x.b.z.x.,., - 0.P.N.r.F.F.K.H.n.t.t.s.H.K.K.K.r.N.&X$X% %.&X&Xr.m.K.H.K.H.y.t.t.N.H.K.N.S.w.P.S.&.& r q.z.x.b.l.c.j.a '.",
"X.l z.c.z.x.x.c.,.- - 0.P.N.e.N.n.H.K.F.t.y.H.H.H.H.K.e.n.&X$X+ %.%X$X0.m.K.H.H.K.d.t.i.F.K.S.n.N.9.P.S.&.X r k.z.c.x.z.c.j.a '.",
"X.j w.l.x.c.z.c.,.- = 0.P.r.8.N.n.N.N.N.a.a.F.N.F.N.H.8.e.$XP.+ h $XP.2.p.H.N.N.H.N.a.s.N.F.m.m.s.<.J.S.&.o r k.x.x.x.z.j.j.s '.",
"X.l z.z.x.x.z.x.,.- - 0.L.e.7.a.n.a.n.m.a.n.n.n.n.n.a.8.e.P.K.+ h P.K.2.y.n.n.n.s.a.n.n.m.s.n.n.u.=.N.N.$.o r k.z.x.c.l.z.q.a '.",
"X.l z.k.j.z.5.l.>., * 0.N.0.1.y.y.y.y.a.u.y.i.i.u.y.y.8.e.F.r.+ r N.F.2.8.u.u.u.u.y.u.u.a.y.y.i.t.$.a.n.&.o r k.j.j.z.q.z.q.a '.",
"X.j q.k.q.q.,.j.>., - 0.a.4.*.9.t.t.t.e.t.t.t.t.y.e.y.*.0.a.r.O 7 a.a.2.7.t.t.t.y.9.t.t.9.t.t.t.9.&.e.a.&.* r q.f.4.q.q.z.4.a '.",
"X.g 5.q.4.q.5.k.,.- - 6.t.7.$.7.6.1.7.6.7.6.1.7.9.6.7.$.6.y.9.O 7 t.t.$.*.7.7.9.7.1.6.6.6.7.1.7.7.$.9.t.$.# r f.q.q.q.>.q.>.a '.",
"X.g 5.5.q.q.q.q.,., - 2.9.1.$.1.1.1.1.1.1.1.1.1.1.1.1.$.6.9.6.. 6 9.t.$.*.1.1.1.1.1.1.1.1.1.1.1.1.$.7.9.$.# r q.q.q.q.4.j.>.a '.",
"X.t q.q.q.q.q.q.;., - *.9.*.$.1.1.1.1.1.1.1.1.1.1.1.1.$.*.6.*.. 6 6.7.$.*.1.1.1.1.1.1.1.1.1.1.1.1.$.9.6.h * r q.5.q.q.,.j.>.i '.",
"X.g q.4.q.q.q.5.;., - *.6.1.*.1.1.1.1.1.1.1.1.1.1.1.1.*.<.6.*.. 6 6.7.$.1.1.1.1.1.1.1.1.1.1.1.1.*.$.7.1.h X r 5.5.q.j.q.5.=.i '.",
"X.g 4.>.5.q.q.4.x , - 1.6.*.*.0.8.0.0.0.0.0.0.0.7.0.0.1.*.6.*.. 6 1.6.$.7.0.0.0.0.0.0.0.7.0.8.0.7.*.6.1.h * r >.5.q.q.5.,.;.i '.",
"X.t -.k >.4.>.4.j , * 1.1.9.9.t.e.y.9.y.t.e.t.y.9.i.y.8.9.1.$.. 6 6.7.9.9.e.e.t.9.y.y.9.e.y.e.t.e.8.9.6.h o e -.4.>.4.-.;.%.i '.",
"X.q k -.-.4.>.,.d , 7 1.1.2.1.1.1.6.6.1.1.1.6.1.1.1.1.1.1.1.*.. 6 1.1.1.6.1.1.6.1.6.6.1.6.1.1.1.1.1.1.1.&.- q -.>.>.;.z -.d i '.",
"X.* , q - w w e , * - @ @ @ @ @ @ @ @ @ @ @ @ @ @ @ @ @ @ @ @   . @ @ @ @ @ @ @ @ @ @ @ @ @ @ @ @ @ @ @ @ - - q w w e , e , < '."
};
