/* XPM */
static char *ZG9vcl81[] = {
/* columns rows colors chars-per-pixel */
"64 64 198 2 ",
"   c #1D180C",
".  c #130C16",
"X  c #160E1A",
"o  c #1F1B12",
"O  c #1C151C",
"+  c #2B1E0F",
"@  c #211A16",
"#  c #231C1C",
"$  c #2B1D19",
"%  c #311C19",
"&  c #23201D",
"*  c #2C2619",
"=  c #2A221E",
"-  c #34241C",
";  c #392518",
":  c #342B1C",
">  c #37341A",
",  c #251B26",
"<  c #3C1B23",
"1  c #2F1E37",
"2  c #311F36",
"3  c #311F39",
"4  c #242221",
"5  c #2A2324",
"6  c #2B2926",
"7  c #2C2529",
"8  c #2C292D",
"9  c #382726",
"0  c #332A25",
"q  c #322D2B",
"w  c #3A3B25",
"e  c #353329",
"r  c #3B3A2B",
"t  c #2E2B33",
"y  c #322434",
"u  c #312B35",
"i  c #34213B",
"p  c #342D3B",
"a  c #382E3E",
"s  c #373331",
"d  c #3A3635",
"f  c #3D3A37",
"g  c #35323E",
"h  c #3A353A",
"j  c #46291D",
"k  c #472C1C",
"l  c #443317",
"z  c #45331A",
"x  c #4D321C",
"c  c #453C1B",
"v  c #4A3B19",
"b  c #52361D",
"n  c #553C1B",
"m  c #5A3C1E",
"M  c #442421",
"N  c #472822",
"B  c #4C2D20",
"V  c #563923",
"C  c #413E37",
"Z  c #703029",
"A  c #7C372A",
"S  c #3F4229",
"D  c #4B441C",
"F  c #54421A",
"G  c #5C421C",
"H  c #62461E",
"J  c #654A1D",
"K  c #6A4E1E",
"L  c #6C511E",
"P  c #72551F",
"I  c #77581F",
"U  c #494B27",
"Y  c #5E4523",
"T  c #4D5526",
"R  c #4F5729",
"E  c #4F5829",
"W  c #525A26",
"Q  c #535D2B",
"!  c #454638",
"~  c #6A4120",
"^  c #694A21",
"/  c #774A23",
"(  c #6F5327",
")  c #745322",
"_  c #765922",
"`  c #7C5C21",
"'  c #7A5825",
"]  c #56612B",
"[  c #5A652C",
"{  c #5D6A2E",
"}  c #596336",
"|  c #616E2D",
" . c #7D612B",
".. c #62722E",
"X. c #647431",
"o. c #6B7D32",
"O. c #372140",
"+. c #3B2345",
"@. c #3C2947",
"#. c #3E2648",
"$. c #373441",
"%. c #3B3545",
"&. c #3D3945",
"*. c #3E3649",
"=. c #3E3A49",
"-. c #42264C",
";. c #422C4E",
":. c #433E44",
">. c #41364C",
",. c #423B4D",
"<. c #482E54",
"1. c #443E52",
"2. c #4B3C56",
"3. c #4B3059",
"4. c #4E395F",
"5. c #513B61",
"6. c #573D69",
"7. c #583E6B",
"8. c #45424B",
"9. c #494649",
"0. c #4F5144",
"q. c #464153",
"w. c #4A4454",
"e. c #4D4955",
"r. c #4B4659",
"t. c #4D4B5B",
"y. c #514C5D",
"u. c #53515E",
"i. c #585658",
"p. c #4F4B61",
"a. c #514D62",
"s. c #555263",
"d. c #5B5664",
"f. c #5D5A66",
"g. c #575569",
"h. c #59576A",
"j. c #5C5A6B",
"k. c #5E5D71",
"l. c #615D6D",
"z. c #615F71",
"x. c #62616D",
"c. c #626174",
"v. c #6A6776",
"b. c #65657A",
"n. c #68677D",
"m. c #6A6A7D",
"M. c #706E7A",
"N. c #83392E",
"B. c #8A2A35",
"V. c #8A3437",
"C. c #93313F",
"Z. c #805F22",
"A. c #805A29",
"S. c #8B5030",
"D. c #826224",
"F. c #85662A",
"G. c #88692C",
"H. c #8B6E30",
"J. c #8F7233",
"K. c #947837",
"L. c #9A3147",
"P. c #A43052",
"I. c #A63455",
"U. c #BD3D74",
"Y. c #C13D79",
"T. c #A14649",
"R. c #B7406B",
"E. c #BF4972",
"W. c #6F8235",
"Q. c #728635",
"!. c #758A37",
"~. c #778C38",
"^. c #7C933B",
"/. c #7F983D",
"(. c #9B803C",
"). c #839C3E",
"_. c #A2863E",
"`. c #87A140",
"'. c #89A441",
"]. c #8AA542",
"[. c #8BA642",
"{. c #8CA843",
"}. c #6D6D82",
"|. c #757484",
" X c #777788",
".X c #777789",
"XX c #7B7B8B",
"oX c #CC3C86",
"OX c #807F8B",
"+X c #D45090",
"@X c #DB6A93",
"#X c #E17599",
"$X c #E35CA5",
"%X c #E56BA5",
"&X c #83838D",
"*X c #868792",
"=X c #E8949D",
"-X c #EC93A5",
/* pixels */
"].].].].].].].].].].].].`.T : /.'.'.'.].].].[.!.W ; + ] [.[.].].].].{.'.].).: + c ..).'.[.'.].'.'.].[ : W.'.'.'.].'.{.`.{.].].].",
"].].].].].].].].].].].].[ 9.! ~.{.'.[.].'.^.Q D n n D Q.'.'.'.[.].].'.'.'.`.[ l n v D Q.).[.].{.'.'.[ e.! ~.'.'.'.{.'.{.'.'.].].",
"].].].].].].].].].].].^.U v.x.] '.'.'.[.X.z n P L D Q.'.[.[.'.'.[.].[.].'.[.`.[ n I J v U /.{.].{.^.! |.9.[ `.{.].'.{.'.'.{.].].",
"].].].`.`.].].].].].{...g  Xm.0.Q.{.'.X.v H _ I n [ [.'.{.{.)./.^.^.).{.[.[.'.).D K ` P n D ^.{.).{ f.XXl.w ).'.'.].'.'.].).].].",
"].].`.[ Q `.].].[.'.{...h k.a.v.i...Q.> G P Z.L D ^.[.[.)...] D D D F ..W.`.[.[.| v _ I K x R Q.} x.l.s.g.w ).].].].].].Q.U !.].",
"].].^.! C Q.{.{.'.'.{...e r.*.r.z.y.U n L I Z.G W ^.^...D F K I I I P F F W Q.).W.D I ` L ^ c ! f.j.,.,.1.w ).].].].].`.Q :.} '.",
"].].Q w.j.! ^.{.{.[.{...u ,.%.%.,.f ; J K L ` m : w > G _ ` D.D.G.F.F.Z.I L v > r ; P ` L J m 9 8.%.%.>.*.w ).].].].].X.9.z.e ~.",
"].{.T ,.XXx.! { ^.).{.^.S a y 7 8 f l G m L P J : w P G.D.D.J.(._._.K.G.Z.G.D.m 0 l _ L H n G : f 6 8 p u [ ].].).Q.R 0..Xv.q Q.",
"].].T a m.XXm.s.! U X...> s t.t.g h l m M H K m j G ` D.Z.G.(._._._._._.Z.Z.F.P x k ^ K b x G - &.g d.8.* W ..[ C 9.j.}.&Xu.6 Q.",
"].].Q q j.j.j.n.n.a.d s t.c.j.i.,.5 l G M x H B m ^ K I Z.D.K._._._._.J.Z.Z./ K K k m m M b G * g e.s.c.j.8.8 8.j.}.c.g.v.,.0 ~.",
"].]./.e q.j.r.1.,.h :.j.j.t.s.t.w.t - G N < N j Z V.L.N.I Z.D.J.J.J.G.Z.Z./ B.L.N.b N M < V x & g t.t.t.u.c.i.h %.,.2.s.g.h ] ].",
"].].).w g y.r.%.u e.j.s.w.w.e.t.t.%.$ x x < < N H I.+XP.N.I D.I Z.Z.Z.Z./ B.Y.oXV.m < < M V ; 8 w.t.t.w.w.e.g.j.h a ,.a.q.8 { ].",
"].].{...7 ,.t.8 d j.u.t.t.m.y.q.t.w.t : n x < j Z I.$X@XI.A P P I I I / B.E.%X+XV.n < M m z 7 %.t.r.8.k.l.e.y.g.t.4 &.y.$.w ).].",
"].].]./.U g h h t 8.t.t.w.XX|.t.,.,.%.t - j j j J L.@X-X@XP.A Z x b Z B.E.=X-XR.N.n M k j 7 u =.8.8.j.*Xz.q.y.e.$.s h $.q { ].].",
"].].].{.{ 4 &.l.q.g ,.t.,.x.&X|.l.r.,.t u f ; - J S.Y.@X#XY.C.Z n m B.P.+X#X+XT./ x + 9 d u g q.s.v.&XXXr.e.e.$.%.s.g.5 w /.].].",
"].].].].~.w f.s.u.q.g ,.$.w.|.XX.Xm.c.g.d.l.%.% v  .S.I.P.C.V.' I I S.B.L.I.T.G.K ; u y.c.y.j.n.}.XXXXj.$.&.%.%.t.u.k.:.W ].].].",
"].].].].Q e.h.t.t.u.q.p t $.s.}.c.k.v.z.l.d.q.y - m ) A.' / ` J.K.J.H.) ) ' ' ^ j 9 ;.a.d.l.z.z.j.n.v.1.u t %.t.u.t.s.j.! !.{.].",
"].].].~.! y.j.v.t.q.w.*.u t =.k.b.f.d.d.d.d.w.>.= - M b G K _ F.F.D. ._ K V B ; + q >.y.d.d.l.d.z.m.p.g t p 1.q.w.g.m.s.8.Q ].].",
"].].].] :.e.j.*XM.g.q.@.$.t t =.j.k.f.d.u.l.y.%.y @ < < b ( K L ( K ^ ^ J N < % , @.2.i.d.d.i.l.c.t.g 8 g h *.p.j.&X|.r.e.! !.].",
"].{.^.r y.e.8.XX*XXX|.z.s.&.g g =.r.h.d.l.d.s.1.p x V M ( ' ) L J K ' ^ F.V j Y 0 %.r.d.d.d.l.y.q.$.g $.w.j.m.XXXX*Xx.,.y.,.Q ].",
"].{.Q :.a.q.%.h..X}.}..XXXM.m.v.j.d.l.i.d.d.d.e.$.c l v G.V  .) x V G.K ( ' ; F 0 q.u.l.i.d.l.l.j.k.b.}.|.XX}.}..X}.q.,.t.y.r ~.",
"].{.Q w.y.t.>.1.}.}.}.k.l.l.l.l.l.d.l.d.d.d.d.l.8.: 0 l x + Y x $ - ~ > - m * 0 e y.d.d.l.d.u.l.j.l.l.l.l.l.z.}.|.h.*.,.t.u.f Q.",
"{./.U w.t.t.,.>.a.n.z.z.d.l.y.w.w.w.w.w.w.e.9.w.8.$.t * 7 7 % % 8 7 % , 7 $ = s :.e.w.w.e.w.w.w.w.w.w.g.d.l.z.b.z.1.*.t.t.r.:.{ ",
"{.o.f t.w.t.e.>.,.g.}.z.d.e.a 5 & # & & @ @ @ $ & & @ o O o     & #   @ # o o & & & @ @ # @ @ , & & 6 :.s.l.n.z.p.*.1.t.r.e.e.w ",
"{.o.:.t.1.q.r.1.%.,.g.c.y.<.3 3 i i ,                                                       # 3 3 3 y +.2.h.c.t.*.*.q.q.2.w.t.r ",
"{.o.d q.,.>.,.,.$.a >.r.>.7.-.-.-.-.2 @                                                     $ +.-.-.-.3.5.,.w.$.$.*.,.,.,.,.8.w ",
"{.!.> 4 0 8 7 7 7 8 = @ i 7.-.-.-.-.2                                                       @ +.-.-.-.3.5.# # 4 8 7 7 7 q 5 # T ",
"].{.T t w.1.2.,.q.e.t   3 p.-.-.-.-.2                                                       @ +.-.-.-.3.5.@ = $.r.1.,.,.t.$.0 Q.",
"'.].T p t.y.y.y.u.s.u   y 7.-.-.-.-.2                                                       # +.-.-.-.3.4.@ # ,.j.y.y.t.s.1.q Q.",
"].].T $.g.g.i.l.d.a.u   y 7.-.-.-.-.2                                                       # #.-.-.-.3.5.@ & ,.j.d.d.u.j.r.q Q.",
"].].R *.g.s.d.u.s.a.u @ y 7.-.-.-.-.2                                                       # +.-.-.-.3.5.@ & ,.g.d.d.g.j.r.s Q.",
"'.].R *.g.g.s.l.s.g.u   y 7.-.-.-.-.2 @                                                     # +.-.-.-.3.4.o & ,.j.u.d.s.j.r.s Q.",
"].{.T =.k.d.d.u.g.a.u   y 7.-.-.-.-.3                                                       $ +.-.-.-.3.4.@ & ,.h.s.s.u.c.t.s Q.",
"{.{.E %.k.f.u.s.s.g.u o y 7.-.-.-.+.3                                                       # +.-.-.-.3.5.@ & ,.g.s.s.u.x.a.s Q.",
"].].E %.k.s.u.d.s.a.u   y 7.-.-.-.-.3                                                       @ +.-.-.-.3.5.@ & ,.j.d.d.u.z.p.s Q.",
"].].E %.k.g.d.f.s.g.u o y 7.-.-.-.-.,                                                       # +.-.-.-.3.4.o & ,.h.s.d.u.k.p.s Q.",
"].'.R *.k.g.d.d.s.a.u @ y 7.-.-.-.-.3 @                                                     # +.-.-.-.3.3.# # ,.j.d.d.d.c.p.s Q.",
"'.{.R %.k.d.d.d.s.s.u   y 7.-.-.-.-.2                                                       # +.-.-.-.3.5.O # ,.j.u.d.s.z.p.s Q.",
"'.{.R =.j.h.d.d.d.a.u   y 7.-.-.-.-.2                                                       , +.-.-.-.3.5.@ $ ,.f.s.d.d.c.p.s Q.",
"'.{.R =.k.f.d.d.g.g.u   y 7.-.-.-.-.3                                                       # +.-.-.-.3.5.@ # >.g.d.f.s.z.a.s Q.",
"{.'.R *.g.g.d.d.s.s.u o y 6.-.-.-.-.2 @                                                     @ +.-.-.-.3.5.O & =.j.s.d.g.j.r.s Q.",
"'.{.T %.h.s.r.t.p.s.u o y 6.-.-.-.-.2                                                       # +.-.-.-.3.5.o & =.g.t.r.t.j.t.s Q.",
"'.'.R *.s.s.h.g.t.t.t o i 7.-.-.-.-.2                                                       , +.-.-.-.3.5.# & %.y.y.j.s.g.p.s Q.",
"'.{.R *.1.y.b.b.t.=.7 o p 7.-.-.-.-.2 @                                                     # #.-.-.-.3.5.# & p w.g.}.j.r.1.s Q.",
"{.{.T =.1.w.g.d.t.%.8 o 2 7.-.-.-.-.2                                                       # +.-.-.-.3.5.@ & u 8.u.j.u.1.1.s Q.",
"{.].T %.q.$.t.s.$.=.t   i 7.-.-.-.-.2                                                       # +.-.-.-.3.4.@ & %.=.=.j.=.&.1.d Q.",
"].{.E *.t.=.&.=.%.q.y   y 7.-.-.-.-.2                                                       o +.-.-.-.3.5.@ & %.q.$.=.&.w.r.s W.",
"].].E &.y.t.s.s.y.e.u   y 7.-.-.-.-.2                                                       o +.-.-.-.3.4.@ & %.t.u.d.a.t.r.s W.",
"'.].R *.p.y.s.d.r.w.u   y 6.-.-.-.-.2                                                       , +.-.-.-.3.4.@ & %.r.a.d.y.y.r.s Q.",
"'.].T *.t.t.y.s.y.y.u   y p.-.-.-.-.2 @                                                     # +.-.-.-.3.5.@ & ,.a.y.s.y.y.q.s Q.",
"].{.W %.t.t.u.t.r.r.y   O.7.-.-.-.-.3                                                       $ +.-.-.-.3.5.@ # =.y.t.t.t.y.r.s Q.",
"'.{.R *.t.r.t.u.r.r.u o 3 p.-.-.-.-.3                                                       , +.-.-.-.3.4.@ & =.y.t.t.t.r.r.s Q.",
"{.'.R *.r.r.u.t.w.e.u   3 7.-.-.-.-.3 o                                                     # +.-.-.-.<.4.o @ &.t.t.t.t.r.2.d Q.",
"'.{.T %.r.r.t.t.r.e.u @ i 7.-.-.-.-.2                                                       # +.-.-.-.<.4.@ 5 %.e.t.t.t.r.q.s Q.",
"'.'.R *.r.1.r.w.,.e.u   y 6.3 -.+.#.2                                                       # +.i +.O.<.4.@ # ,.w.1.y.1.r.q.s Q.",
"'.{.R %.q.1.q.,.,.2.q @ y 7.i 2 3 +.2                                                       # O.+.i i ;.5.@ # &.q.>.1.1.w.,.s Q.",
"].].E g r.=.=.1.,.w.u   y 5.3 3 i O.3 o                                                     , O.i i 1 @.4.@ # &.q.,.1.>.q.>.q Q.",
"].].T O.1.=.2.1.,.2.u   y 5.3 3 3 O.2                                                       # O.i 1 1 @.4.O & =.8.2.1.>.1.,.q Q.",
"].{.E p 1.1.1.1.,.1.u @ i 5.3 1 1 O.y                                                       # +.1 3 1 @.4.@ & %.1.,.1.1.1.:.q Q.",
"].].E O.1.*.1.r.,.,.u   y 4.1 3 1 O.3                         o                             # O.3 3 1 @.4.@ & %.1.1.1.1.,.,.q Q.",
"].{.T p =.=.1.1.=.=.t o y 5.3 3 1 O.i O o o o o o o o o o o o o # o o o   o o o o o o o o o , O.3 1 1 @.4.o # $.>.1.1.,.*.*.q Q.",
"].].T u %.g =.*.*.%.8 o y 5.1 1 1 O.i & 4 4 4 4 & 4 4 4 4 4 4 4 & 4 4 4 @ # 4 4 4 4 4 4 4 4 7 +.3 1 1 @.4.o O g ,.*.,.%.$.%.q Q.",
"].].T 8 %.g %.%.*.%.6 o i 4.1 1 1 O.O.t u u t u u t t t t u u u t t t t p t u u u u u u t u t O.3 1 1 @.4., & p *.%.%.g $.u 5 Q.",
"].].T O 4 & , 5 5 7 & # O , . . . X X 5 5 5 5 7 5 5 5 5 7 5 5 5 5 5 5 5 5 5 5 5 5 5 5 5 5 5 O X . . . X , # o 4 5 5 5 5 4 & * Q."
};
