/* XPM */
static char *ZG9vcl8y[] = {
/* columns rows colors chars-per-pixel */
"64 64 208 2 ",
"   c #161209",
".  c #19150E",
"X  c #1E190C",
"o  c #170F1A",
"O  c #1D1913",
"+  c #19111D",
"@  c #211912",
"#  c #231C1D",
"$  c #2A1D19",
"%  c #321D19",
"&  c #26221D",
"*  c #2B2619",
"=  c #372817",
"-  c #33231C",
";  c #3C241C",
":  c #373A1E",
">  c #1C1829",
",  c #2A1E20",
"<  c #3D1C23",
"1  c #221D32",
"2  c #2F1E36",
"3  c #301E38",
"4  c #272425",
"5  c #2A2323",
"6  c #29262A",
"7  c #2A272B",
"8  c #322C25",
"9  c #30272F",
"0  c #312A2D",
"q  c #353326",
"w  c #3A3A25",
"e  c #3C3D2A",
"r  c #2B2532",
"t  c #2E2B33",
"y  c #332C34",
"u  c #312338",
"i  c #342E39",
"p  c #392F3E",
"a  c #35323E",
"s  c #3A3638",
"d  c #39353B",
"f  c #42291A",
"g  c #4C2F1E",
"h  c #4D321C",
"j  c #473818",
"k  c #4C3C1A",
"l  c #52351D",
"z  c #543B1B",
"x  c #593D1D",
"c  c #401F22",
"v  c #412122",
"b  c #472A20",
"n  c #4B2C20",
"m  c #572C24",
"M  c #4A3422",
"N  c #583A21",
"B  c #423D3A",
"V  c #703826",
"C  c #763C27",
"Z  c #7C3B29",
"A  c #3E4025",
"S  c #48441D",
"D  c #55431A",
"F  c #5E431C",
"G  c #62461E",
"H  c #644A1D",
"J  c #6A4E1E",
"K  c #6B511F",
"L  c #72541F",
"P  c #474A25",
"I  c #414329",
"U  c #564720",
"Y  c #4B5326",
"T  c #4F5828",
"R  c #535A27",
"E  c #464836",
"W  c #4D5334",
"Q  c #684923",
"!  c #724622",
"~  c #6E5224",
"^  c #755622",
"/  c #7C5D22",
"(  c #57622C",
")  c #59652B",
"_  c #5D6A2D",
"`  c #5C6830",
"'  c #63722F",
"]  c #657531",
"[  c #6B7D33",
"{  c #352241",
"}  c #3B2344",
"|  c #3A2F42",
" . c #3E2549",
".. c #3E2A4C",
"X. c #373341",
"o. c #3B3443",
"O. c #3E3C44",
"+. c #3E3548",
"@. c #3E3B49",
"#. c #402B47",
"$. c #42264C",
"%. c #422D4D",
"&. c #413D44",
"*. c #40364B",
"=. c #423C4E",
"-. c #442751",
";. c #442954",
":. c #482F52",
">. c #472E5B",
",. c #4A2E5D",
"<. c #463153",
"1. c #4A3256",
"2. c #443D52",
"3. c #4B325C",
"4. c #4E395E",
"5. c #51375E",
"6. c #4A2C63",
"7. c #4E3364",
"8. c #4F3A60",
"9. c #513566",
"0. c #543C64",
"q. c #553E68",
"w. c #5A3E6B",
"e. c #47434A",
"r. c #45424C",
"t. c #545649",
"y. c #464153",
"u. c #4A4455",
"i. c #4C4955",
"p. c #4B4558",
"a. c #4D4A5B",
"s. c #514E57",
"d. c #514C5D",
"f. c #53515F",
"g. c #58565C",
"h. c #564166",
"j. c #524E62",
"k. c #574268",
"l. c #5D436B",
"z. c #565463",
"x. c #5B5564",
"c. c #585767",
"v. c #585769",
"b. c #5D5A6B",
"n. c #5B4270",
"m. c #5E5D70",
"M. c #62456F",
"N. c #605C6E",
"B. c #644671",
"V. c #624974",
"C. c #684873",
"Z. c #654C7A",
"A. c #615E72",
"S. c #68517F",
"D. c #626175",
"F. c #696776",
"G. c #65647A",
"H. c #6A697C",
"J. c #716F7D",
"K. c #72727E",
"L. c #893333",
"P. c #805F21",
"I. c #8E5033",
"U. c #836325",
"Y. c #84652A",
"T. c #87682C",
"R. c #8A6C2D",
"E. c #876A31",
"W. c #8C7032",
"Q. c #917536",
"!. c #947838",
"~. c #9F2E4E",
"^. c #993945",
"/. c #A0314E",
"(. c #A42F54",
"). c #A63355",
"_. c #B6356B",
"`. c #C13979",
"'. c #6D8034",
"]. c #748837",
"[. c #7C943B",
"{. c #80973C",
"}. c #819A3D",
"|. c #A2873F",
" X c #86A03F",
".X c #859C4E",
"XX c #86A140",
"oX c #8AA542",
"OX c #8BA642",
"+X c #8CA743",
"@X c #8CA843",
"#X c #6E5283",
"$X c #715589",
"%X c #73588D",
"&X c #6C6B81",
"*X c #757484",
"=X c #777788",
"-X c #777689",
";X c #7E7E8C",
":X c #D5598D",
">X c #D54A94",
",X c #D6678D",
"<X c #DB6D94",
"1X c #E2729F",
"2X c #E86FA9",
"3X c #82828D",
"4X c #898993",
"5X c #ED9EA2",
/* pixels */
"oXoXoXoXoXoXoXoXoXoXoXoX].e I  XoXoXoXoXoXoX}._ S f = ' @XoX XoX@XoXoXoX@X].= = j ) [. X@XoXoXoXoXoXY q '.oXoX@XoXoXoXoXoXoXoXoX",
"oXoXoXoXoXoXoXoXoXoXoXXXI z.W [.oXoXoX@XXX] S D G j ( }.@X@X@X@XoXoXoXoXoX X) j H D S ' [.@XoXoX+X{.W x.I [.@X XoXoXoXoXoXoXoXoX",
"oXoXoXoXoXoXoXoXoXoXoX] E =Xx._ +XoX@X[.Y j G U.G ( }. X X@X X X@XoX@X@XoXoX X) D L J k S {.+X+X@X] s.;Xe._ oXoXoXoXoXoXoX@XoXoX",
"oXoX+X[.XXoXoXoXoXoXoXY y.*XF.t.].@X}.P h K L L k ].@X X@X@X}.'.'.[ [. X+X@X X[.D L L L D P {.+X].W F.*Xa.P oXoXoXoXoXoX X[.oXoX",
"oX+X{.P ( XXoXoXoXoXoXT =.j.d.F.t.` ` j K L P.F R  X X X'.R D D D D D R [  X@X@X) x P.L J h ( _ t.H.d.j.u.P oXoXoXoXoXoX_ I [.oX",
"oXoX' e.E ].+XoXoXoX+XT o.2.*.p.D.u.M F K L P.k ) '.[ R D H L P./ / L H D S [ '._ j L P.J G j e.A.d.+.=.O.P oX+XoXoXoX[.E r._ oX",
"oX XA z.m.W ].oX+XoXoXR i =.p p d 8 h H J L / k : 8 k K L P.U.R.R.R.U.U./ K D = q j / K G G m 8 d p p *.a Y oX@X+XoX[.W x.N.w }.",
"oX XA d.;XD.E ( '.[.oX[.q y 0 0 d q l x x J K x - k U.R.U.T.!.|.|.|.!.Y.U.E.T.D - D K K F z x q O.0 y y 8 ].oX[.[ ) E b.3Xj.w }.",
"+XXXw o.*X&XH.x.e.W R Y 8 e.b.i.X.8 z x b G J l z J L U./ W.|.|.|.|.|.!.P.U.P.J l m J H n l x 8 O.r.m.r.8 Y R W r.g.&X&X*X=.q [.",
"oX XY i m.x.c.G.A.u.s e.b.m.c.f.o.& h x v n x n G ! ! L U.U.Q.|.|.|.!.R.P.P.! ! G n x g c x l $ a a.v.m.v.r.s r.A.G.x.v.D.d P }.",
"oXoX[ 8 p.v.y.*.p d i.m.f.i.s.a.y.6 = G v < c g C /./.L.L P.U.R.R.R.U.U.L ! /.).Z l c < c U = 4 r.a.a.i.f.m.z.s p *.2.x.a.0 '.XX",
"oX+X[.w +.d.u.a d x.v.a.i.a.i.a.a.X.$ l M c < g ! _.>X(.L.P.U.^ P.P.P./ L./.>X`.Z h < < g z - a a.a.u.a.i.i.x.b.d p y.d.@.q ].@X",
"oXoXoX) t y.y.& O.z.a.a.f.*Xa.y.a.e.t - z m % g Z _.2X<X).Z ! ~ L L G Z ~.,X2X`.Z h < g z ; t *.a.y.u.K.v.i.a.z.O.4 &.p.y R oXoX",
"oXoX@X[.w i d O.t r.a.a.a.;X*Xa.=.*.a t - f f h ! ~.<X5X<X).L.m f m L.~.,X5X1X).C h ; f - 0 a =.@.a.*X3Xd.a.a.y.i O.d d q ].oXoX",
"oXoXoX X` 4 a.b.y.X.r.a.=.F.4X*XF.z.=.t O.&.$ ; Q I._.,X:X).L.V F G L.).:X:X`.I.J ; $ B O.t @.d.F.*X4XK.=.p.y.X.r.b.f.& R XXoXoX",
"oXoX@XoX] A m.f.f.y.a X.a i.&X*X&XH.H.b.N.b.*.5 z Y.I.^.L.L.I.U.U.U.I.L.L.^.I.U.x - o.b.D.b.G.&XH.=X&Xa.p X.a r.f.a.A.r._ oXoXoX",
"oXoXoX}.I z.z.a.a.f.y.t t X.v.&Xb.b.b.A.x.x.=.9 % z ^ ^ ^ ^ Y.W.Q.!.T.K ^ / ~ x % 9 *.x.N.N.N.N.b.H.b.o.t t 2.d.a.f.z.b.I [.oXoX",
"oXoXoX' e.s.H.H.p.2.2.+.t t @.m.G.b.x.x.x.x.2.| # % < n x J ^ / / / ^ J F n v % $ p 1.g.g.x.x.x.G.D.r.t t o.2.2.i.D.H.d.=.) oXoX",
"oX+X[.E i.u.D.4X*XA.p.o.a t t @.v.b.b.x.x.g.d.*.7 % v < G ~ J K K K ~ ~ Q < v % 9 *.y.x.x.x.x.N.b.@.t r i X.2.A.J.4XF.y.a.I [.oX",
"oXoX] s f.=.i.3X;X;X=X&Xb.r.r.@.r.a.b.x.N.N.d.=.y U l n E.Q / ~ H ~ P.Q E.M l U 0 *.d.x.g.N.b.d.r.@.@.y.b.*X*X;X;X3Xs.2.j.&._ oX",
"oXXXI i.f.e.+.b.=X&X&X=X*X*XH.G.N.N.b.x.g.M.g.s.y j = H ^ M Y.Q f N Y.M ~ Q = j 0 a.g.x.x.x.b.N.m.G.H.*X*X*X&X&X=XD.+.y.d.a.A }.",
"oX XP s.a.i.+.u.&X&XA.m.b.x.b.b.x.x.x.x.N.g.x.x.e.8 5 h 8 $ N ; , ; N = ; h 5 8 &.x.N.x.x.b.x.x.x.b.b.b.b.b.A.&X&Xp.o.p.a.f.I }.",
"@X[ d a.a.a.2.+.z.G.G.N.x.x.u.&.&.&.O.@.O.O.&.&.+.a 5 @ 6 , $ $ t 5 $ 4 6 @ 4 a o.&.&.O.O.O.O.O.O.@.y.x.x.N.G.G.v.+.@.a.a.p.B ] ",
"@X) r.a.u.p.u.+.*.v.H.N.g.2.r # # # # # # # # # # # # # # # . . O O . # # # @ # # # # # # # # # & O 6 =.z.N.G.v.2.+.u.a.u.a.u.P ",
"@X) u.a.y.y.p.2.*.2.v.A.2.u 3 2 3 3 3 3 3 3 3 3 3 u 3 3 2 2 +   X   o r 2 2 3 3 u u 3 3 3 3 u 3 3 3 3 u =.b.b.2.+.2.p.y.2.a.i.Y ",
"@X) s o.o.d o.X.y y a *.r { >.>.>.>.>.>.>.>.>.>.>.>.>.>...3 >   X   + 2  .>.>.>.>.>.>.>.>.>.>.>.>.>.;.{ r O.o.y i X.o.o.o.o.d Y ",
"oX].* 4 y 0 9 7 y 0 # X 6 0.Z.k.*...%.....*.%.#.%...0.Z.3.2 +   X   + 2 3.Z.0.%.%...%.#...%.......k.Z.k.9 @ # 0 y y 0 9 d 4 * ] ",
" X XI a d.p.y.y.a.u.6 @ ..Z.$X3.$.%.%.%.%.$.%.%.$...9.$Xw.2 +   X   + 2 0.%Xq. .%.$.%.%.%.%.%.%...3.#X#X%.@ 4 u.a.2.y.y.a.X.w }.",
"@X XA o.z.f.f.f.x.a.6 @  .V.n.>.k.l.l.l.l.M.l.l.l.0.0.%Xq.3 +   X   o 2 4.%Xk.7.l.l.l.l.B.l.l.B.k.>.k.Z.%.@ 4 p.z.f.z.a.z.o.w }.",
"oX XA *.m.z.x.x.v.a.6 @ ..V.3.3.C.C.C.C.C.C.C.C.C.0.q.%Xq.3 o   X   o 2 4.%Xk.0.C.C.C.C.C.C.B.C.C.8.>.Z.%.@ 4 p.b.x.x.z.A.2.e [.",
"oX XI 2.v.z.x.x.v.a.6 @ #.V.1.w.C.C.C.C.C.C.C.C.C.0.0.%Xq.2 +   X   o 2 0.%Xw.0.C.C.C.C.C.C.C.C.B.w.>.Z.%.@ 4 p.z.x.z.z.m.y.e }.",
"oX XI =.m.j.z.x.c.a.6 O #.B.7.w.C.C.C.C.B.C.C.C.C.h.0.%Xq.2 >   X   o 2 4.%Xq.0.C.C.C.C.B.B.C.C.C.w.,.V.%.@ 4 p.v.x.z.j.m.y.M {.",
"oXXXI 2.A.z.g.f.v.a.6 @ #.V.,.w.C.C.C.B.w.C.C.C.C.0.q.%Xw.2 +   X   o 2 4.%Xk.0.C.C.C.C.w.n.C.C.C.w.,.C.%.@ 4 p.x.c.d.x.D.y.e }.",
"oX}.I 2.A.j.x.z.z.a.6 X #.C.,.w.C.C.C.w.7.w.C.C.C.0.w.%X0.2 +   X   o 2 4.%Xq.0.C.C.C.B.7.w.C.C.C.w.,.Z.%.@ 4 p.c.f.z.c.D.y.e }.",
"oXXXI 2.G.j.g.x.x.a.6 O #.V.,.w.C.C.B.9.6.w.C.C.B.0.q.%Xq.2 +   X X + 2 4.%Xw.0.C.C.C.w.6.6.B.C.C.w.,.V.:.O 4 p.c.x.x.a.A.p.e }.",
"oX XI 2.A.z.x.x.v.a.6 O ..V.6.w.C.C.w.6.6.6.M.C.C.0.9.%Xq.2 o   X   + 2 0.%Xq.0.C.C.B.9.6.6.q.C.C.w.,.V.$.@ 4 p.c.x.x.z.G.2.e }.",
"oX XI y.G.z.x.x.v.h.6 O #.V.,.w.C.C.9.6.6.6.0.C.C.0.q.%Xq.2 +   X   + 2 4.%Xw.0.B.C.w.6.6.6.6.B.C.M.,.V.-.@ 4 p.b.g.x.z.A.p.e [.",
"oX XI 2.m.z.x.x.c.p.4 O #.V.3.w.C.w.6.6.6.6.9.M.C.h.q.%Xq.2 >   X   o 2 4.%Xq.0.C.B.6.6.6.6.6.w.C.w.,.V.:.@ 4 p.z.f.N.z.G.2.e XX",
"oX XI y.D.c.x.x.x.a.6 O #.V.,.w.B.9.6.6.6.6.6.0.C.0.0.%X0.3 +   X   + 2 4.%Xw.0.C.w.6.6.6.6.6.6.B.M.,.V.%.@ 4 p.b.x.x.z.A.p.e [.",
"oX XI y.m.c.x.x.c.a.6 @ ..C.,.w.w.6.6.6.6.6.6.9.B.q.0.%Xw.2 +   X   + 2 4.%Xq.0.B.9.6.6.6.6.6.6.w.w.,.V.%.@ 4 p.x.z.c.v.A.p.e }.",
"oX XA y.b.z.z.z.z.a.6 O ..V.3.w.0.6.6.6.6.6.6.6.w.0.0.%Xq.2 +   X   + u 4.%Xl.0.q.6.6.6.6.6.6.6.9.w.>.V.%.@ 4 p.c.z.z.z.b.2.e XX",
"oX XA 2.m.a.p.p.z.a.6 O ..V.>.7.6.6.6.6.6.6.6.6.6.0.0.%Xq.3 o   X   o 2 4.%Xw.4.9.6.6.6.6.6.6.6.6.7.3.V.:.@ 4 y.z.p.p.a.m.2.e }.",
"oX XI 2.j.z.D.b.a.2.4 @ p V.6.6.6.6.6.6.6.6.6.6.6.3.0.%Xq.2 +   X   o 2 0.%Xl.3.6.6.6.6.6.6.6.6.6.6.,.V.%.@ 4 @.d.c.G.j.j.2.e [.",
"oX XA =.y.d.H.m.a.+.4 X #.V.3.9.6.6.6.6.6.6.6.6.9.0.0.%Xq.2 >   X   o 2 4.%Xq.4.9.6.6.6.6.6.6.6.6.9.,.V.%.@ 4 a p.b.H.j.p.2.e }.",
"oXXXA @.@.u.x.j.r.X.6 O #.B.6.w.9.6.6.6.6.6.6.6.q.q.q.%Xw.2 +   X   + 2 9.%Xw.0.q.6.6.6.6.6.6.6.9.w.,.V.%.@ 5 p r.f.c.a.@.2.e [.",
"oXXXI 2.y.X.z.y.o.=.6 O #.C.6.w.M.6.6.6.6.6.6.9.B.0.0.%X0.2 +   X   o 2 4.%Xq.0.C.9.6.6.6.6.6.6.w.l.6.V.<.@ 6 *.X.=.z.a 2.2.e }.",
"@XXXA 2.a.r.@.r.=.=.6 @ #.V.,.w.C.9.6.6.6.6.6.w.C.0.w.%Xq.2 +   X   @ 2 4.%Xl.0.C.w.6.6.6.6.6.7.B.n.,.V.*.@ 4 =.y.@.@.r.a.y.e }.",
"oXXXA 2.a.a.x.z.a.2.6 @ #.V.6.w.C.w.6.6.6.6.6.M.C.h.9.$Xq.2 o   X   + 2 4.%Xw.0.C.B.9.6.6.6.6.w.C.w.>.V.%.@ 4 =.a.z.x.d.d.y.e }.",
"oXXXA 2.d.d.x.z.a.y.6 @ ..V.3.w.C.V.0.6.6.6.w.B.C.0.w.$Xq.3 +   X   o 2 4.%Xq.0.C.C.w.6.6.6.7.B.C.M.,.V.%.@ 4 2.d.f.g.d.d.2.e }.",
"oXXXA @.a.a.f.f.a.u.6 X #.V.6.w.C.C.l.6.6.7.B.C.C.0.w.$Xq.2 >   X   o 2 4.%Xw.0.V.C.B.7.6.6.k.C.C.w.,.V.:.@ 5 2.d.d.f.a.d.2.e }.",
"oXXXI 2.a.a.f.a.p.2.6 @ #.B.>.0.l.C.C.9.6.w.B.C.C.0.9.%Xq.2 +   X X o 2 0.%Xq.0.C.C.C.w.6.9.B.B.M.0.,.l.*.@ 5 =.a.d.d.a.d.2.e }.",
"@XXXA 2.a.a.a.a.a.u.6 @ #.l.<.9.k.B.B.k.9.B.C.B.B.0.4.$X0.3 +   X   o 2 4.$X0.4.B.B.B.B.9.w.B.B.k.0.>.n.:.@ 5 2.a.d.a.p.d.2.e }.",
"oXXXA 2.p.p.j.a.i.y.6 @ #.l.-.0.h.l.l.l.0.M.l.l.l.3.1.#X0.2 +   X   o 2 4.S.4.>.l.l.l.B.0.l.l.l.k.0.$.l.%.@ 4 2.a.a.a.p.p.2.e }.",
"oXXXA 2.a.p.a.p.i.u.6 @ #.k...9.8.q.k.h.0.0.h.0.q.>.<.Z.5.2 +   X   + 2 3.Z.1.:.0.q.8.h.0.h.k.h.0.9...h.*.@ 4 2.a.a.a.p.p.2.e }.",
"oXXXA @.a.=.p.2.2.2.6 @  .0.} >.6.7.7.8.7.7.9.9.7.>.<.M.1.2 +   X   + 2 1.M.3.;.7.7.8.7.7.7.9.6.7.,.} 0.%.@ 6 2.2.=.p.=.i.2.e }.",
"oXXXA +.p.=.2.=.=.2.6 @ | 7.} ;.6.,.6.,.>.>.6.6.,.-...h.1.u +   X   + 2 ..h.%...7.6.6.,.,.,.6.,.6.;.} 7.%.@ 4 =.=.=.2.2.u.*.e }.",
"oX Xe | 4.@.2.2.2.2.6 @ #.,.} $.-.$.-.-.-.$.;.;.-. . .6.-.3 +   X   o 2 #.7...} $.;.;.-.-.$.-.$.-.$.} ,.$.@ 4 =.2.2.2.+.2.o.e {.",
"oX XA o.y.@.2.y.=.=.6 @  .$.} $.$.$.#.$.$.$.$.$.$.$.} >. .3 +   X   + 2 } >.} $.$.$.$.$.$.$.$.$.$.$.} ;.$.@ 4 =.2.2.2.=.y.+.e {.",
"oX XA o.y.@.2.2.=.=.8 @ } $.{ $.$.$.$.$.$.$.$.$.$. .} $.} 2 +   X   + 2 { -.} } $.$.$.$.$.$.$.$.$.$.} $. .@ 4 =.=.2.2.*.2.*.w {.",
"oX Xw ..2.@.2.2.=.=.6 @ } $.{ $.$.$.$.$.$.$.$.$.$.$.{ ..} 3 +   X   o u } $.}  .$.$.$.$.$.$.$.$.$.$.u .. .@ 4 +.=.2.u.2.=.| w {.",
"oX XA | +.@.2.2.=.o.6 @ 3 $.} 1.3.1.3.3.1.3.3.3.1.:.} ..} 2 +   # . o 2 { $.} $.3.3.3.3.3.3.3.>.3.3.}  . .@ 5 X.=.2.2.+.*.o.e [.",
"oX XA i X.X.+.+.+.a 5 @ $.$.;.,.6.6.3.,.,.,.,.6.,.,.-.$.{ 2 + > # # + 2 } $.-.,.,.,.,.,.3.,.,.,.,.,.>.$. .@ 4 p +.+.*.a o.i w }.",
"oXXX: 6 d y p p o.a 5 # } } #.} } } } } } } }  .} } } } { 2 + 4 i 6 o 1 3 } } } }  .} } } } }  .} } } } { # & i o.o.a i a r : [.",
".X.XE t i i i i i i i 9 1 1 1 1 1 1 1 1 1 1 1 1 1 1 1 1 1 > > t i r > 1 1 1 1 1 1 1 1 1 1 1 1 1 1 1 1 1 7 t t i i i i t a i d .X"
};
