/* XPM */
static char *ZG9vcl8x[] = {
/* columns rows colors chars-per-pixel */
"64 64 213 2 ",
"   c #0A060B",
".  c #15120E",
"X  c #1E190F",
"o  c #0E0811",
"O  c #120D15",
"+  c #1A0F1E",
"@  c #1E1A10",
"#  c #17121D",
"$  c #19121B",
"%  c #211D16",
"&  c #241C1C",
"*  c #2B1E1C",
"=  c #331A1C",
"-  c #29221C",
";  c #3C241B",
":  c #372819",
">  c #37371C",
",  c #1F1520",
"<  c #251B20",
"1  c #2C1D25",
"2  c #231628",
"3  c #3C1B23",
"4  c #2C1C35",
"5  c #262222",
"6  c #2A2324",
"7  c #2A262A",
"8  c #2C292D",
"9  c #342929",
"0  c #312B2C",
"q  c #383629",
"w  c #2D2132",
"e  c #2E2A33",
"r  c #332C34",
"t  c #33213D",
"y  c #39253B",
"u  c #342D3A",
"i  c #382D3F",
"p  c #353134",
"a  c #3C3935",
"s  c #36323A",
"d  c #3A343B",
"f  c #3D393E",
"g  c #452E17",
"h  c #442B1C",
"j  c #4A2D1E",
"k  c #473719",
"l  c #4C331B",
"z  c #53351E",
"x  c #553B1C",
"c  c #5A3D1D",
"v  c #401F23",
"b  c #442421",
"n  c #4B2B21",
"m  c #443B2A",
"M  c #563721",
"N  c #403C3B",
"B  c #72292C",
"V  c #7B3A29",
"C  c #3D411E",
"Z  c #3D4025",
"A  c #4B441C",
"S  c #584319",
"D  c #5D421D",
"F  c #62461D",
"G  c #654B1D",
"H  c #694E1E",
"J  c #6C511E",
"K  c #73551F",
"L  c #464C25",
"P  c #444529",
"I  c #484E28",
"U  c #4E5323",
"Y  c #4D542C",
"T  c #4F582A",
"R  c #535A27",
"E  c #51512F",
"W  c #444436",
"Q  c #674622",
"!  c #7A4426",
"~  c #6D5127",
"^  c #725522",
"/  c #755824",
"(  c #7C5D21",
")  c #55602B",
"_  c #59642B",
"`  c #5E6C2D",
"'  c #58603D",
"]  c #63732F",
"[  c #647330",
"{  c #6B7C33",
"}  c #3B2446",
"|  c #372A44",
" . c #3C2946",
".. c #3E254A",
"X. c #3F2A4C",
"o. c #373240",
"O. c #3A3443",
"+. c #3C3945",
"@. c #3E3549",
"#. c #3F394B",
"$. c #42264D",
"%. c #422B4E",
"&. c #433D44",
"*. c #40364C",
"=. c #423B4D",
"-. c #442752",
";. c #452C53",
":. c #462A59",
">. c #492C5D",
",. c #483055",
"<. c #453E52",
"1. c #493856",
"2. c #4D345D",
"3. c #4A2C63",
"4. c #4D3362",
"5. c #4F3863",
"6. c #513666",
"7. c #533B63",
"8. c #563A68",
"9. c #563B68",
"0. c #593E6B",
"q. c #44414C",
"w. c #494749",
"e. c #55584B",
"r. c #464253",
"t. c #494455",
"y. c #4D4955",
"u. c #4B4659",
"i. c #4D4B5B",
"p. c #514C5D",
"a. c #575756",
"s. c #53515E",
"d. c #4F4E60",
"f. c #554065",
"g. c #594167",
"h. c #534E63",
"j. c #5C436B",
"k. c #565363",
"l. c #5B5564",
"z. c #5B5865",
"x. c #57546A",
"c. c #58566A",
"v. c #5D5A6C",
"b. c #5C4570",
"n. c #5E4873",
"m. c #5E5D71",
"M. c #61466E",
"N. c #605D6C",
"B. c #654771",
"V. c #674873",
"C. c #684873",
"Z. c #674D7C",
"A. c #615E72",
"S. c #68507F",
"D. c #62616E",
"F. c #636174",
"G. c #696775",
"H. c #65657A",
"J. c #68677B",
"K. c #6B6B7E",
"L. c #716E7D",
"P. c #72717D",
"I. c #813A2C",
"U. c #8E2B36",
"Y. c #922C3D",
"T. c #8C3639",
"R. c #84452B",
"E. c #805F21",
"W. c #905136",
"Q. c #826224",
"!. c #88682C",
"~. c #836732",
"^. c #8E7233",
"/. c #957A37",
"(. c #9D2B4A",
"). c #A22F51",
"_. c #A33152",
"`. c #B7356A",
"'. c #B73C6A",
"]. c #C13C77",
"[. c #A2484C",
"{. c #C5497A",
"}. c #6E8134",
"|. c #748937",
" X c #798F39",
".X c #7B933A",
"XX c #7F993D",
"oX c #80973C",
"OX c #829B3D",
"+X c #A2863E",
"@X c #86A03F",
"#X c #87A140",
"$X c #89A541",
"%X c #8AA542",
"&X c #8BA642",
"*X c #8CA843",
"=X c #6A4F81",
"-X c #6D5385",
";X c #6F5488",
":X c #71568A",
">X c #73588D",
",X c #6C6C82",
"<X c #747384",
"1X c #777788",
"2X c #7B7B8B",
"3X c #807F8B",
"4X c #D14D8D",
"5X c #DB6794",
"6X c #E365A2",
"7X c #81818F",
"8X c #878791",
"9X c #E88B9F",
"0X c #EB8FA3",
/* pixels */
"%X%X%X%X%X%X%X%X%X%X%X] f q OX@X%X%X%X%X%X}.U : x g ] *X*X*X@X*X@X%X*X*XOXR g x : _  X%X*X%X*X%X*X{ a m  X@X*X*X*X%X%X%X%X%X%X%X",
"%X%X%X%X%X%X%X%X%X%XOXP D.a.{ *X%X%X&X XU k D J k ` %X%X*X@X*X*X%X*X@X*X%XoXU c K x A R @X%X%X%XOXR G.w.` @X*X@X%X%X%X%X%X%X%X%X",
"%X%X%X%X%X%X%X%X%X*X] d 1XP.E XX%X%X.XA x J ( F U %X%X*X%X%X*X%X%X@X*X%X*X*X.Xk K K G k R OX%X*X|.w.2XG.q .X*X@X%X%X%X%X%X%X%X%X",
"%X*X{ }.%X%X%X%X%X*X` f H.D.D.' .X.XP x J ( K k }.%X%X%XOX|.U U U _ oXoX*X*X@X_ S E.K J g _ @X}.e.G.D.F.q .X*X*X%X%X%X@X] .X*X%X",
"%XOXW m OX%X%X%X%X*X` s i.*.v.D.W R k H K Q.G U %X%X.X] A A G J J D A A { oX%X Xk K E.K F A ) w.G.p.=.p.9 .X*X@X%X%X%X{ a T @X*X",
"*X_ w.w._ %X*X%X%X*X` r r.@.@.s.p.: Q J K Q.S > U U A D K K E.E.Q.( ( J S U U U > K E.J H x p l.t.@.*.<.9  X*X@X%X%XXXT k.N |.*X",
"%XL p.<Xy.`  X*X%X*X{ q @.u r 8 0 g D F J K G : q S ( Q.E.!./.+X+X!.Q.Q.Q./ k q : K ^ G c D : p 8 r d O.q OX@X@X#X{ T z.<Xs ] %X",
"%XL *.1X1Xs.W T ] OXoXC 7 f f s &.g D j H J F : x K ^.Q.Q./.+X+X+X+X^.Q.Q.!.J g j H H F l D : q.e q.s - _ @XXX_ T w.N.7XG.r ] *X",
"%XL r G.H.J.,Xv.q.q > a s.F.s.+.9 g D b x H z z H J ( E.Q./.+X+X+X+X^.Q.E.( ~ F j c G j n D : p q.v.D.y.q q Z i.A.,XH.L.k.7 [ *X",
"*X[ 8 p.v.i.h.h.r.N s.F.v.d.i.=.5 : F b 3 M h V V I.! ( ( !.+X+X+X/.Q.( / I.I.V c j j 3 n F - r r.d.s.v.m.w.+.i.x.h.p.v.<.q  X%X",
"%X.X9 #.k.t.@.r f k.v.i.q.i.i.i.s - c j 3 3 b c _.].Y.! ( Q.Q.Q.Q.Q.Q.K I.).].T.c v 3 3 z g 5 +.i.i.i.r.d.z.d.p u *.i.k.u L %X%X",
"*X#XT u u.i.u s v.k.i.y.z.r.i.i.q.7 ; c b 3 b Q ).6X{.Y.^ ( Q.( Q.E.K R.).4X4XT.c v 3 n c : e t.d.t.y.v.q.s.v.s.0 @.p.<.8 ] %X%X",
"%X*X}.0 =.q.- e i.d.i.i.3XD.q.t.t.O.7 h z v b Q ).5X9X{.Y.V Q D G H V _.5X9X{.T.c b j z ; e @.t.r.r.P.P.r.i.s.t.6 r r.s C OX%X%X",
"%X%X#XL 7 p s.f O.y.i.r.P.8XD.t.=.O.r 6 ; ; h F U.4X0X9X].U.B ; n B (.4X0X6X'.R.c ; h - 7 r *.=.i.P.8Xv.r.s.q.d q.y.0 7 [ *X%X%X",
"%X*X%X|.- s.v.p.+.O.t.#.h.7X2X1XA.p.+.q.s.9 = c ( [.].{.`.U.! H J I.Y.`.{.{.W.K j & N l.O.=.k.J.2X2X1Xw.=.r.d =.s.N.+.C OX%X%X%X",
"%X%X#X] w.v.s.i.i.+.u u @.m.1XJ.H.,XH.N.N.t.8 h Q !.W.R.! R.~.!.!.W.R.R.W.!.E.c : u p.A.A.J.,XH.,X<Xh.O.u s =.s.i.k.c.W |.*X%X%X",
"%X*XOXP x.z.s.i.i.y.O.e u t.K.D.x.v.N.l.l.1.d - h c Q ~ H ( ^.^.^.^.^ J H Q z ; 9 %.p.l.l.v.l.N.H.F.=.e e +.p.i.i.c.z.t._ #X%X#X",
"@X*X] f u.H.1Xk.r.=.@.u e u d.H.v.z.l.z.l.y.*.7 % 3 b z H J / / ^ ^ J Q j v = & r &.p.l.l.k.N.m.F.r.u e  .#.=.r.D.2Xl.y.a .X*X%X",
"*XXXP y.t.s.8X7XL.k.=.O.e 8 u i.k.v.z.l.l.p.*.i : n v M ^ J J H H J ~ ~ n b j - %.=.s.l.l.l.v.k.q.e 8 u @.r.A.<X8X2Xw.i.q.R %X%X",
"%X] f s.t.=.P.2X2X1X2X1Xv.p.u.t.i.v.z.l.l.l.t.u k c n ~.~ / ( F Q ( ~ ( ~ h G 9 &.p.l.l.l.N.x.i.r.i.s.D.1X2X2X2X2XN.*.i.i.m  X*X",
"$XI t.p.t.O.p.1X,X,X,XK.,XH.H.D.N.N.l.z.N.s.s.&.: : x ^ ; / Q ; l ( D m / : > : r.s.l.l.l.l.z.N.F.,XK.L.K.K.,X,X,X<.@.i.s.a [ *X",
"$XT i.i.i.=.*.A.,XA.m.x.z.z.z.k.s.l.l.z.s.N.N.y.r r : : - j 9 6 6 h ; < ; : r a s.N.l.l.l.z.l.l.x.k.z.z.c.F.H.,Xx.O.r.i.i.q.[ *X",
"{ a i.t.i.r.*.u.A.J.N.l.l.=.s s p u s p s u r s r 7 % 5 7 % & 8 7 % & 7 & % e r s u r a p s s s p s i.z.z.H.J.A.=.@.i.i.t.y.P OX",
"` &.i.r.i.i.*.@.i.H.F.N.q.7 < < < * < < & & * & & & & & & & & . @ < & < < & < < & < & * 5 5 $ < < 5 e y.v.F.A.<.@.<.i.t.t.i.a .X",
"` q.y.r.<.u.<.*.*.p.A.r.7 1 t t t t t t t t t t t t t } t t 4 o + } t t t t t | t t t t t t t t t t 5 r h.m.t.*.@.r.t.<.u.p.a  X",
"` 8 s p s r u r 7 r s 6 w :.4.4.3.2.2.4.2.2.4.2.4.>.2.>.2.2.3.o 2 4.2.4.4.>.2.>.2.2.3.2.2.4.2.2.4.4.X.< 0 s 0 7 r u u u u s q .X",
"oX> 5 f s u r u d 5 X 1 7.=XS.S.2. .}  . . . . . . .| | 7.-XS.# | =XZ.,. . .|  . . . . .}  .X.j.-XS.Z.;.& X 8 f r u r d p - R %X",
"%XL i u.t.t.t.p.p.e X y B.>X:Xj.%.,.,.;.;.,.*.,.,.;.;.-.9.:X-X# | >X;X,.;.;.;.;.,.*.,.,.;.;.;.,.=X-X:X7.1 % s k.t.t.t.i.<.9 [ *X",
"%XI | k.s.s.l.k.h.e X y n.:XM.%.f.M.M.M.M.M.M.M.b.M.M.2.j.:X-X#  .>X:X2.f.B.b.M.M.M.M.M.M.M.j.2.;.S.-X7.1 % O.c.s.k.k.k.t.e ] %X",
"%XL @.v.k.k.z.k.h.e X y n.-X,.7.C.C.C.C.C.C.C.C.C.C.C.8.g.>X-X# | >X:X2.g.C.C.C.C.C.C.C.C.C.C.V.2.7.-X7.1 % O.c.k.z.k.v.k.u ] %X",
"%XI *.x.k.l.z.k.h.e X y n.=X2.M.C.C.C.C.C.C.C.C.C.C.C.9.0.>X-X# | >X;X2.j.C.C.C.C.C.C.C.C.C.C.V.g.4.;X7.1 % O.c.l.l.k.k.h.s ] *X",
"%XI =.c.k.k.l.k.h.e X y n.S.2.M.C.C.C.C.M.M.C.C.C.C.B.u.g.>X-X#  .>X:X2.j.C.C.C.C.M.M.C.C.C.C.V.g.7.-X7.1 % O.c.k.l.k.v.h.s [ *X",
"%XI #.A.z.s.k.k.h.r X y B.S.1.B.C.C.C.C.0.6.M.C.C.C.M.7.b.;X-X# s >X;X2.j.C.C.C.C.M.3.B.C.C.C.C.0.7.-X9.1 @ @.c.k.k.k.v.x.s ] *X",
"%XI #.A.k.s.l.k.h.e X y B.S.2.M.C.C.C.M.6.3.j.C.C.C.C.7.0.>X-X# | >X;X2.j.C.C.C.B.9.3.9.C.C.C.C.0.6.:X2.7 % O.x.k.k.s.v.x.s ] *X",
"%XI #.A.k.k.l.k.h.e X y n.=X2.M.C.C.C.0.3.3.6.C.C.C.V.7.0.;X-X# | >X;X7.j.C.C.C.M.3.3.6.M.C.C.C.j.2.;X7.1 @ O.c.k.l.s.v.x.s ] *X",
"#XI #.m.z.l.l.k.h.e @ y n.=X1.M.C.C.C.6.3.3.3.0.C.C.V.5.b.>X-X# | >X;X2.j.C.C.C.9.3.3.3.9.C.C.C.g.7.;X7.6 % O.c.k.l.l.v.x.s ] *X",
"%XI #.m.x.l.l.l.h.e @ y n.S.2.M.C.C.0.3.3.3.3.6.C.C.V.7.0.>X-X# | >X:X2.j.V.V.M.3.3.3.3.3.B.C.C.g.7.-X7.6 % O.c.s.s.l.v.x.u ] %X",
"%XI <.m.z.l.l.k.h.e X y n.-X2.M.C.B.6.3.3.3.3.3.j.C.V.7.0.>X-X# | >X:X2.j.V.C.7.3.3.3.3.3.9.C.C.j.2.-Xf.1 % o.c.N.N.k.v.x.u ] *X",
"%XI <.m.z.l.k.x.h.e X y n.S.2.M.C.j.3.3.3.3.3.3.7.M.V.7.0.>X-X# | >X;X2.j.C.M.4.3.3.3.3.3.3.B.C.g.2.:X7.1 % O.x.s.l.l.N.c.f ] *X",
"%XI #.m.z.l.l.z.h.e X y B.S.2.M.B.6.3.3.3.3.3.3.3.M.V.7.0.>X-X#  .>X;X2.j.V.9.3.3.3.3.3.3.3.9.C.g.7.;X7.1 % O.v.s.l.k.N.x.s ] *X",
"%XL #.x.x.k.l.x.h.e @ y n.-X2.M.j.3.3.3.3.3.3.3.3.8.B.2.j.>X-X#  .>X:X2.M.M.>.3.3.3.3.3.3.3.3.B.g.4.;X7.7 % O.x.s.N.k.x.h.u ] *X",
"%XI #.m.p.u.t.p.h.e @ t b.=X2.j.6.3.3.3.3.3.3.3.3.3.j.8.g.>X-X# i :X;X2.0.9.3.3.3.3.3.3.3.3.3.0.g.7.;X7.1 @ O.c.y.y.u.x.x.p ] *X",
"%XI #.h.h.A.v.p.r.8 X y n.S.,.j.3.3.3.3.3.3.3.3.3.3.9.7.0.>X-X#  .>X;X2.j.6.3.3.3.3.3.3.3.3.3.6.g.7.:X7.1 @ u i.p.A.N.h.p.s ] *X",
"%XL #.<.i.H.F.i.@.7 @ y n.-X2.M.6.3.3.3.3.3.3.3.>.3.M.7.0.>X-X#  .>X>X2.0.9.3.3.3.3.3.3.3.3.3.0.9.7.;X7.7 $ e r.p.K.N.u.1.s ] *X",
"%XI #.#.t.z.x.r.o.8 X y B.=X2.M.B.3.3.3.3.3.3.3.3.9.B.7.b.;X-X# | >X;X2.M.M.6.3.3.3.3.3.3.3.6.B.g.9.-X7.1 % u +.u.z.s.=.<.s [ *X",
"%XI #.r.s d.i.s =.e X y B.Z.2.M.C.6.3.3.3.3.3.3.3.M.V.7.0.>X-X# | >X-X7.j.V.9.>.3.3.3.3.3.3.0.C.g.2.:X7.7 % s #.s l.q.+.t.s [ *X",
"%XL #.p.q.#.q.#.t.r X y n.=X2.M.C.0.3.3.3.3.3.3.6.B.V.7.0.;X-X# | >X;X2.j.V.M.6.3.3.3.3.3.3.B.C.j.2.-Xu.1 @ o.t.#.q.=.r.u.s ] *X",
"%XI #.i.i.l.l.i.<.e X y n.=X>.B.C.C.6.3.3.3.3.3.j.C.V.5.b.>X-X# | >X;X2.j.V.V.7.3.3.3.3.3.9.C.C.g.8.;X9.1 & o.t.p.z.h.p.p.s ] *X",
"%XI #.p.i.l.k.u.u.e X y b.=X2.M.V.V.j.3.3.3.3.6.C.C.V.9.0.>X-X#  .>X:X2.j.C.C.M.3.3.3.3.7.M.C.C.g.8.-X7.1 % s p.p.k.s.p.p.s [ *X",
"#XI #.p.t.k.k.i.p.e X y B.=X2.M.V.V.V.6.3.3.3.j.C.C.V.7.0.>X-X#  .>X;X2.j.C.C.V.9.3.3.3.0.C.C.C.g.2.:X7.1 % O.p.p.p.p.i.u.u [ *X",
"%XI #.p.i.i.i.i.t.e % y M.Z.2.M.B.V.V.j.3.3.6.B.C.C.V.7.g.>X-X$ | >X-X2.j.C.V.V.B.4.3.4.B.B.M.M.j.7.S.7.1 % i p.i.p.i.i.p.s ] *X",
"%XL *.u.i.i.i.i.y.e X y j.Z.:.0.f.j.V.V.6.4.j.B.C.M.C.2.5.;X-X$ | :X-X1.g.V.B.V.B.9.3.0.B.B.g.g.7.2.S.7.1 & i p.u.p.i.i.u.d ] *X",
"%XI #.t.t.i.i.i.y.e X y j.V.-.0.g.g.j.b.7.7.M.M.j.j.n.>.2.-XZ.$ u -XZ.%.8.j.g.b.B.j.5.j.M.j.g.g.5.,.S.7.6 % s p.i.i.u.u.u.u ] *X",
"%XI *.u.u.d.i.t.y.e X y j.j.X.5.f.7.f.g.f.7.7.7.f.7.f.:.1.V.M.$ y V.V.$.4.f.f.f.8.7.7.f.g.f.f.f.>.%.M.7.1 % i p.t.p.i.y.u.i ] *X",
"%XY @.i.<.i.r.=.t.r X y f.f.} :.4.4.5.7.5.5.6.6.7.5.5.:.2.M.g.O w g.j.%.4.4.4.5.4.3.5.5.6.3.2.6.;.%.j.2.1 % f y.=.i.t.t.y.i ] *X",
"%XL  .u.=.r.#.=.<.e X t 7.2.} >.3.>.3.3.>.3.>.>.4.4.3...%.7.2.O 4 7.f. .;.3.4.3.4.3.4.3.3.>.3.3.-. .7.2.1 % O.r.*.=.<.<.<.p ] *X",
"%XL i r.#.<.<.#.r.r X y 3.>.} :.-.$.-.-.-.$.$.:.:.-.-.$.$.3.3.o 2 6.3.} ..:.-.:.$.$.-.-.-.-.$.-.-.} 4.>.1 % s t.<.<.@.<.=.r ] %X",
"%XL i r.#.<.<.<.<.e X y :.-.} $.$.$.$.$.$.$.$.$.$.$.$.} ..3.$.o 2 :.3.} } $.$.$.$.$.$.$.$.$.$.$...} >.:.1 % O.r.#.<.<.=.=.e [ %X",
"%XI o.r.,.r.r.#.<.8 X y -.:.t $.$.$.$.$.$.$.$.$.$.$.$.$...:...o # -.:.} $.$.$.$.$.$.%.$.$.$.$.$.$.} :.$.1 & o.<.<.<.<.<.=.r ] *X",
"%XL | #.#.<.r.#.=.r X y $.-.} $.$.$.$.$.$.$.$.$.$.$.$.} } -...o 2 %.-.} $.$.$.$.$.$.$.$.$.$.$.$...} -.$.1 % o.=.*.<.<.<.*.r [ %X",
"%XL i =.@.<.<.,.@.8 X t $.-.} ,.,.,.,.,.,.;.,.;.,.,.,.%...-...o , -.-...;.;.,.,.;.,.,.;.,.,.,.;.-...-.$.1 % s =.#.<.#.@.*.r ] *X",
"%XL r O.s *.#.*.O.7 X y $.:.:.4.4.4.2.3.4.4.2.3.2.>.2.2.:.-...o 2 ..-.:.2.2.2.4.4.4.4.4.2.4.4.4.2.:.-.$.1 % e #.@.#.#.d O.0 ] %X",
"*XL 7 O.i O.@.@.+.7 % y $.$.-.$.$.$.$.-.$.$.$.-.$.-.$.$...$...  , -.$.-.$.-.$.$...$.-.$...-.$.$.$.-.$.$.e & e =.@.X. .d s 7 ] *X",
"%XL X 5 - 5 5 7 6 @ % 2 + + + # + + + + + # + + + + + + + + +     + + + + + + + + + + + + + + + + + + + $ @ - 5 5 7 5 5 - % ] *X"
};
