/* XPM */
static char *ZG9vcl80[] = {
/* columns rows colors chars-per-pixel */
"64 64 202 2 ",
"   c #1D180C",
".  c #1A0F1E",
"X  c #1F1B12",
"o  c #1C121E",
"O  c #211B13",
"+  c #2B1C16",
"@  c #241C1D",
"#  c #2A1D1B",
"$  c #341E1A",
"%  c #23201D",
"&  c #2B2419",
"*  c #33241B",
"=  c #392719",
"-  c #38371A",
";  c #261B23",
":  c #3D1C23",
">  c #2F1E36",
",  c #2F1E38",
"<  c #301F38",
"1  c #252221",
"2  c #2C2324",
"3  c #2C2B23",
"4  c #2B262C",
"5  c #2E292B",
"6  c #312620",
"7  c #332B25",
"8  c #322D2A",
"9  c #3B3C24",
"0  c #383728",
"q  c #2F2535",
"w  c #2D2B34",
"e  c #312C35",
"r  c #31203A",
"t  c #342E3A",
"y  c #392F3D",
"u  c #373331",
"i  c #3C3834",
"p  c #36323D",
"a  c #39343C",
"s  c #3C393C",
"d  c #41241D",
"f  c #442B1B",
"g  c #4A2D1F",
"h  c #463719",
"j  c #4D331B",
"k  c #4D3B19",
"l  c #53361D",
"z  c #543A1B",
"x  c #5A3E1D",
"c  c #422222",
"v  c #472921",
"b  c #4A2C21",
"n  c #572C24",
"m  c #493522",
"M  c #563C23",
"N  c #413E39",
"B  c #6E3625",
"V  c #773C27",
"C  c #3F4125",
"Z  c #49451E",
"A  c #53431A",
"S  c #5D421C",
"D  c #62471D",
"F  c #654A1D",
"G  c #6A4F1E",
"H  c #6C511E",
"J  c #72541F",
"K  c #77581F",
"L  c #404328",
"P  c #454928",
"I  c #4D5528",
"U  c #515324",
"Y  c #545B26",
"T  c #525C2A",
"R  c #474A36",
"E  c #535939",
"W  c #694823",
"Q  c #744623",
"!  c #6E5025",
"~  c #725421",
"^  c #7C5C22",
"/  c #785824",
"(  c #58632B",
")  c #59652C",
"_  c #606E2D",
"`  c #7F6125",
"'  c #63722F",
"]  c #647331",
"[  c #677932",
"{  c #6A7B32",
"}  c #3A2344",
"|  c #3A2F43",
" . c #3C2947",
".. c #3E264A",
"X. c #373341",
"o. c #3B3444",
"O. c #3D3A45",
"+. c #3F3549",
"@. c #3E3A49",
"#. c #42264D",
"$. c #422C4E",
"%. c #423D43",
"&. c #40364B",
"*. c #423B4D",
"=. c #452A54",
"-. c #452A55",
";. c #482F55",
":. c #492C5C",
">. c #473356",
",. c #4E3654",
"<. c #443D52",
"1. c #4C365C",
"2. c #4D385C",
"3. c #52355C",
"4. c #50395B",
"5. c #4A2C63",
"6. c #4E3164",
"7. c #503363",
"8. c #533C65",
"9. c #583F65",
"0. c #55396C",
"q. c #5A3C6C",
"w. c #444145",
"e. c #44404A",
"r. c #4A464C",
"t. c #515449",
"y. c #464153",
"u. c #494455",
"i. c #4C4A56",
"p. c #4B4659",
"a. c #4D4B5B",
"s. c #504D56",
"d. c #514C5D",
"f. c #53515E",
"g. c #585759",
"h. c #4F4A61",
"j. c #554166",
"k. c #524D61",
"l. c #5A426D",
"z. c #565363",
"x. c #5B5564",
"c. c #5B5867",
"v. c #59576A",
"b. c #5C5A6B",
"n. c #5E4570",
"m. c #5E5D72",
"M. c #61426F",
"N. c #615D6E",
"B. c #634673",
"V. c #674B77",
"C. c #615F72",
"Z. c #64626E",
"A. c #626174",
"S. c #696775",
"D. c #65657A",
"F. c #6A6A7D",
"G. c #74727D",
"H. c #882B32",
"J. c #863632",
"K. c #86492D",
"L. c #805F22",
"P. c #97523C",
"I. c #826224",
"U. c #846429",
"Y. c #86682B",
"T. c #8A6C2D",
"R. c #8B6E33",
"E. c #937737",
"W. c #992E46",
"Q. c #9A3744",
"!. c #A52F54",
"~. c #A83358",
"^. c #B33667",
"/. c #C6457E",
"(. c #6E8134",
"). c #728635",
"_. c #768C38",
"`. c #7C933B",
"'. c #839C3E",
"]. c #A2863E",
"[. c #86A03F",
"{. c #859F40",
"}. c #AC9041",
"|. c #86A040",
" X c #89A442",
".X c #8AA542",
"XX c #8BA642",
"oX c #8CA743",
"OX c #8CA843",
"+X c #6D6C81",
"@X c #747483",
"#X c #76768A",
"$X c #7B7B88",
"%X c #7E7E90",
"&X c #CA3E84",
"*X c #D2558C",
"=X c #DB6894",
"-X c #DC7592",
";X c #E772A6",
":X c #82828C",
">X c #868792",
",X c #ED9DA2",
/* pixels */
".X.X.X.X.X.X.X.X.X.X.X.X_.9 L |..X.X.X.X.XoX[.' Z = = ' OX[.OX.X[.OX.X.XXX`.- = h Y `.[.[.OX.X.X.X.X) 7 ' .X.X.X.X.X.X.X.X.X.X.X",
".X.X.X.X.X.X.X.X.X.X.X{.P f.R `.oX.X.X.X'.{ Z z S h U '.OXOX.X.X.XOX.XXX.X.X_ h S z Z ) '.[..X.X.X[.E g.i _..XoX.X.X.X.X.X.X.X.X",
".X.X.X.X.X.X.X.X.X.X.X[ i @XN.) .X.XoX'.Y h S K F U '.[.[.OX[.[.OXoX.XXXoX[.[._ z K G k Z _..X.X.X(.t.$Xs.Y [..X.X.X.X.X.X.X.X.X",
".X.XOX`.{..X.X.X.X.XoXY r.@XG.t.(..X'.I k ! K K k ).[.[.OX[.[.(.(.(._.XXoXOX[.'.Z J K K S Z _..X`.E Z.@Xc.9 '..X.X.X.X.X.X`..X.X",
".XoX'.P T .X.X.X.X.XOXY &.z.d.S.g.) ) h F K L.D U [..X.X).Y U A A A A Y ' [.OXOX' k L.L.H j U ] E S.v.a.k.9 '.oX.X.XOXOX{ 9 (.OX",
".X.X[ %.R _..X.X.X.XOXT a y.o.p.C.s.m S G K L.z ) (.(.Y A S H ^ ^ ^ K F S Z { ).' h K K H F h w.m.z.+.&.<.9 '..X.X.X.X'.I y.T [.",
".X[.L z.b.R `..XOX.XoXY e *.| | s 8 g D F J L.z * 0 h G ^ I.I.T.T.T.Y.L.^ J A = u - K / H D z * s p o.+.o.9 [.OXOX.X'.T s.S.u ).",
".X|.C a.%XC.R T ).`.oX`.0 e e 5 u i j x z G H D * h ` T.` I.E.].].].E.Y.` T.T.A * j J G S z S 7 O.4 8 e 5 ] OX[.).] R g.$XA.e ).",
"[.[.C o.G.@X+Xx.w.R ( I - w.b.a.o.8 k x f D H l g D / L.L.T.E.}.].}.].].L.L.I.G l g G G g l x * o.O.b.i.3 P T T %.s.D.+X$Xs.3 ).",
".X[.I t N.v.z.D.A.i.u O.v.C.z.a.o.% j x c b x b D Q Q ~ L.I.E.].].].E.Y.L.L.~ Q F g x l : M z * p i.z.b.A.i.u *.C.D.b.z.A.*.9 _.",
".X.X).5 p.v.y.*.o.p i.Z.k.i.f.a.y.4 = S c : c b V W.!.J./ L.L.T.Y.T.Y.L.K Q W.~.J.l c : : x f 1 O.a.a.a.a.A.z.s y &.<.z.k.t ( .X",
".XoX`.0 o.d.u.a u v.c.a.u.i.i.a.a.o.% l n 6 : b V ^.*X!.J./ L.I.L.L.L.^ J.W.&X&XJ.l : : f x * w u.f.i.u.i.i.z.b.%.e *.f.<.8 ] oX",
".X.X.X) w y.r.% O.v.f.a.f.G.a.y.a.y.w * x g : f Q ^.;X=X~.J.G J K J Q V W./.;X/.J.l $ v x g 4 @.a.p.y.S.Z.u.a.z.i.% O.a.y C {..X",
".X.X.X`.9 p a O.w *.a.i.a.%X@Xa.*.*.X.w * f d g W W.=X,X-X~.H.n g g B W.*X,X;X^.V l d d $ 4 p &.O.y.S.>Xb.u.f.u.p a s t 5 [ .X.X",
".X.X.X.X) % i.b.y.p <.i.*.S.>X@XS.k.e.e a %.& = W K.^.*X=X^.H.B S S H.!.*X=X/.P.J j + N %.e s p.m.G.>X$X<.u.i.a &.z.v.3 L '..X.X",
".X.X.X.X[ i C.f.f.y.X.o.t u.@X$X+XF.D.v.N.N.*.2 k ` P.Q.Q.H.K.` ` ` K.J.P.Q.P.L.S * t f.A.v.D.F.F.#X@Xz.X.X.X.&.f.a.m.r.Y |..X.X",
".X.X.X'.P z.z.a.a.d.y.t w o.z.+XC.b.C.N.N.x.<.q $ z ! / / ~ U.E.R.E.R.~ / / / x d 2 &.k.N.N.N.N.v.F.A.@.w w @.d.a.a.z.v.R )..X.X",
".X.XOX] %.d.S.F.p.<.y.o.w w @.m.D.b.x.x.g.x.<.&.# $ d g x G ~ ` ` ` ^ G D n v $ + p *.z.f.c.x.x.A.D.u.t w X.<.<.y.C.@Xf.<.I [..X",
".X.X`.P u.u.A.>XG.c.u.X.t w w @.v.m.v.x.x.g.i.&.q + $ : x ! W G G G ! G F c 7 $ ; &.,.g.x.x.g.N.m.p.w w t p &.z.S.>XG.y.i.N )..X",
".X.X{ s f.y.i.:X%X%X#X+Xv.e.O.O.e.a.b.x.x.N.f.<.e M M g U.! / ~ W G / W Y.M v D 7 &.s.x.x.x.N.d.y.O.O.O.f.S.@X%X%X>Xc.*.k.*.T |.",
"oX|.P i.f.y.o.A.#X+X+X#X@X@X+XA.N.N.N.x.x.x.x.p.a h = S ^ m U.! g M T.M ! ~ = k 7 u.z.x.x.x.x.N.b.A.F.@X#X#X+X+X#X+X<.@.a.a.i _.",
"|.'.P s.a.u.+.u.+X+XC.C.N.x.N.N.x.x.x.c.N.x.N.x.e.7 3 h v + M f # * M = * l & 7 a z.g.N.c.x.c.N.c.b.b.b.x.N.D.D.+Xk.+.y.a.z.R ).",
"oX).i a.a.a.*.+.z.S.C.m.x.x.i.*.%.e.w.e.*.*.%.%.*.X.5 O 4 2 + ; e 5 + % 4 @ 1 p O.%.*.*.e.e.%.&.w.e.y.z.x.N.A.D.m.<.+.i.a.p.%.Y ",
"oX) e.a.y.a.u.&.>.v.+XA.g.<.e 1 2 @ @ @ @ O O + X O X X X X     X O   O O O   O O & O O @ @ ; ; 1 1 4 O.f.N.S.C.p.+.<.a.p.u.a.9 ",
"oX) r.a.u.<.p.<.&.*.b.C.<.r  .<.>.> > > > @                                             > > > ; +.2...<  .c.C.u.+.+.u.y.y.p.d.9 ",
"OX) a &.o.o.o.o.y t &.*.;.>.0.B.l.r > > > @                                           O > > > > >.V.l.1.;.*.*.p t o.&.o.o.@.%.0 ",
".X(.& 3 e 5 5 5 8 5 % O 4.j.4.9.l.r > > > @                                           X > > > > 2.l.8.8.l.2 O 3 e 5 5 5 e 3 % Y ",
".X[.C p i.u.<.y.p.u.5 O ,.=.#.$.j.r > > > @                                           O > > > > 1.2.#.#.4.2 % &.d.<.<.<.d.@.3 ).",
".X[.C o.z.a.f.f.z.a.4 @ ,.>.9.M.l.r < > > @                                           X > > > > 1.B.l.1.3.2 % *.v.d.z.i.z.<.8 ).",
".X[.C +.m.z.x.x.z.k.5 O ,.:.M.V.n.r > > < @                                           O > < > > 2.V.V.5.3.2 % <.v.x.c.z.b.p.8 ).",
".X[.C <.v.z.x.x.v.a.4 O ,.:.B.V.n.r > > < @                                           O > > > > 3.V.V.3.3.2 % *.v.x.x.z.v.h.u ).",
".X[.L <.m.k.z.x.z.h.4 O ,.:.M.V.n.r > > > @                                             > > < < 3.V.M.6.3.6 % *.c.z.x.k.b.p.u ).",
".X{.L <.C.z.z.f.z.d.4 O ,.:.q.M.B.< > < > @                                           . > > > > ,.B.q.7.3.6 ; <.v.z.f.f.A.h.u _.",
".X{.L <.C.z.z.z.z.k.4 O ,.:.q.M.q.< > > > @                                           O > > > > 1.B.q.7.3.2 % *.v.f.x.f.A.a.u ).",
".X'.L <.C.z.g.c.v.d.4 O ,.3.q.q.n.< > , > @                                           O > > > > 3.B.q.3.3.6 % <.v.z.x.f.A.h.u (.",
"oX|.L <.A.z.x.x.z.h.4 O ,.:.0.q.n.< > > < @                                           O > > > > 2.B.q.5.3.2 % *.v.z.x.z.C.a.u ).",
"oX[.L <.A.z.v.x.v.h.4 O ,.:.5.0.n.r , , > @                                           O > , > ; 2.q.5.:.1.2 % *.b.g.x.f.C.h.u ).",
".X'.L <.A.x.x.x.z.d.4 O ,.:.5.6.q.r > , , @                                           O > , , > 1.0.5.:.3.2 % <.b.x.c.z.C.h.u ).",
".X[.L y.A.z.x.x.z.h.4 O ,.:.5.6.l.r > , > @                                           O > > > > 1.0.5.5.3.5 @ *.v.x.x.x.A.h.u _.",
".X[.L y.A.x.x.x.v.d.4 O 1.5.5.6.l.r , > > ;                                             > > > > 1.0.5.5.3.6 @ *.v.x.c.z.C.a.u ).",
".X[.C <.m.z.z.x.z.h.4 X ,.:.5.6.q.r > > > @                                           X > > > > 1.0.5.:.3.2 1 @.v.z.z.z.b.p.u ).",
".X[.C <.m.a.p.p.z.h.4 X ,.;.6.6.l.r r > > @                                           X > > > > 1.0.5.:.4.2 % @.v.a.a.a.b.h.u ).",
".X[.L <.v.k.b.v.h.y.5 O ,.:.5.6.l.r r > r %                 O                         O > > > > 1.0.5.5.3.2 % O.a.h.b.z.v.p.u ).",
".X[.L *.y.k.F.C.a.o.1 O ,.:.5.6.0.r > > > o                                           O > > > > 6.0.5.:.7.6 % t u.v.+Xv.p.<.u ).",
".X|.C +.@.a.v.z.y.X.4 O ,.:.5.6.l.r > < > @                                           O > > > > 1.0.5.5.3.6 1 t e.f.b.d.@.<.u ).",
".X|.L <.<.X.z.u.o.@.5 X ,.5.5.6.q.r > > > @                                           O > > > > 1.0.5.:.3.6 ; o.O.@.b.O.@.y.u ).",
".X|.L *.a.@.e.O.*.<.4 O ,.:.5.6.l.r > , > @                                             > > > > 6.0.5.:.3.2 % @.y.O.@.O.p.p.u ).",
".X|.L <.d.s.z.z.a.<.4 O ,.:.5.6.l.r > , > @                               X           o > > > > 1.6.5.5.3.2 % o.a.h.x.d.a.p.u ).",
".X|.C <.h.a.v.z.a.<.w O ,.;.5.0.l.r < > > @                                           X > > > > 1.0.6.5.3.2 1 +.p.k.x.f.s.p.u ).",
".X{.C <.a.a.f.f.d.i.4 O ,.:.0.q.l.r < < < @                                           X > > > > 1.n.8.6.3.6 % *.k.d.f.a.d.p.u ).",
".X|.C <.f.i.f.a.p.u.5 O ,.:.q.q.B.< > < < @                                             > > > > 2.B.0.6.3.2 % %.d.a.a.a.a.p.u ).",
".X|.C <.a.a.a.a.p.u.2 O ,.:.0.q.l.< > > > @                                             > > > > 2.B.0.6.3.2 % &.d.a.a.a.a.u.u ).",
".X|.C <.h.p.a.a.p.u.5 O ,.:.9.M.9.< < > > @                                           X > > > > >.B.8.1.3.2 % &.a.a.a.a.u.y.u _.",
".X|.C <.h.y.f.a.p.u.5 O ,.:.8.l.j., > < > @                                           O > > > > >.n.j.5.3.2 % %.a.a.s.p.p.2.u ).",
".X|.C @.p.<.a.y.<.u.4 O >.:.3.8.3.> > > > @                                             > > > > &.8.8.:.3.2 @ &.u.*.d.<.u.u.u ).",
".X|.C @.p.*.<.+.*.<.4   &.;.5.5.:., > > > @                                           O > > > > #.6.:.:.;.1 % &.u.&.<.*.u.*.u ).",
".X|.C o.p.<.<.<.<.<.4 O $.=.=.=.-., , > , @                                           X q , > > ..=.=.=.;.1 X @.<.<.<.&.y.&.8 _.",
".X|.C  .<.+.<.<.<.r.4   #.#.#.#.#., > , , @                                           X > > > > ..#.#.#.=.; 1 +.<.<.<.*.<.&.8 ).",
".X|.C X.<.<.<.<.*.<.5 O #.#.#.#..., , > > @                                           X > > > > } #.#.#.=.@ % O.<.<.2.<.<.*.8 ).",
".X|.C  .<.@.y.<.&.*.5 O #.#.#.#.} , > > , @                                           X > > > > < #.#.#.=.; 1 o.<.*.e.<.*.@.7 ).",
".X|.C | @.+.y.<.@.@.5 X #.;.;.;...> , , , ; X X X X X X X X X X X X X X O X X X X X X @ , , , < } =.;.;.;.; % X.&.<.<.@.+.+.8 ).",
".X|.C t o.X.+.+.+.o.1   #.6.6.1..., > > , 2 % 1 % 1 1 1 @ ; 1 1 1 1 1 1 ; ; 1 1 1 ; @ 1 , , , < } :.:.1.:.; % t <.+.&.o.o.X.8 ).",
".X|.9 w O.t | o.+.o.4 @ } #...#.} , > , , q t w t w w w e t t t e e e e e w w w w t e e > > < < < #.#.=...2 % t +.| o.o.X.w 3 ).",
" X|.9 X 2 ; 2 1 4 1 O @ o . . . ; > > , , 4 2 1 1 2 2 2 1 2 1 1 2 ; 1 2 2 2 2 2 2 2 2 ; > > < < ; . . . . @ X 1 2 2 2 1 1 @ & _."
};
