/* XPM */
static char *ZnVybmFjZV9mcm9udF9vbg__[] = {
/* columns rows colors chars-per-pixel */
"64 64 163 2 ",
"   c #000000",
".  c #0B0B0B",
"X  c #131313",
"o  c #1E1E1E",
"O  c #242424",
"+  c #2C2C2C",
"@  c #372F2F",
"#  c #333333",
"$  c #3C3C3C",
"%  c #7C1E1E",
"&  c #452B2B",
"*  c #4A2B2B",
"=  c #572525",
"-  c #5A2625",
";  c #522828",
":  c #632525",
">  c #632B25",
",  c #762020",
"<  c #633925",
"1  c #514028",
"2  c #634B25",
"3  c #434343",
"4  c #4C4C4C",
"5  c #555555",
"6  c #5B5B5B",
"7  c #646464",
"8  c #6C6C6C",
"9  c #757575",
"0  c #7C7C7C",
"q  c #861A1A",
"w  c #8A1A1A",
"e  c #931919",
"r  c #CC0000",
"t  c #CF0D00",
"y  c #C70C0C",
"u  c #D30000",
"i  c #DA0100",
"p  c #D30A00",
"a  c #D30A0A",
"s  c #D21800",
"d  c #E40100",
"f  c #E90101",
"g  c #EA0A00",
"h  c #F40101",
"j  c #FB0000",
"k  c #F20C00",
"l  c #FB0D00",
"z  c #E01600",
"x  c #EC1400",
"c  c #F71200",
"v  c #FB1600",
"b  c #FB1B00",
"n  c #D52100",
"m  c #DB2000",
"M  c #D82B00",
"N  c #DD3B00",
"B  c #EB2000",
"V  c #F62701",
"C  c #FB2200",
"Z  c #FB2B00",
"A  c #FB3200",
"S  c #FB3E00",
"D  c #955918",
"F  c #E14A00",
"G  c #F44600",
"H  c #FB4500",
"J  c #F34F00",
"K  c #FA4C00",
"L  c #F75300",
"P  c #FA5300",
"I  c #FB5C00",
"U  c #E96500",
"Y  c #EC6A00",
"T  c #FB6300",
"R  c #FB6D00",
"E  c #EE7200",
"W  c #FA7300",
"Q  c #F17F00",
"!  c #FA7D00",
"~  c #D78B09",
"^  c #FB8500",
"/  c #FB8B00",
"(  c #F79200",
")  c #FB9300",
"_  c #FB9F00",
"`  c #FBA300",
"'  c #FBAB00",
"]  c #FBB400",
"[  c #FABC00",
"{  c #FBC300",
"}  c #FBCE00",
"|  c #FBD400",
" . c #FBDC00",
".. c #FBE500",
"X. c #FBEB01",
"o. c #FBF401",
"O. c #FBFA01",
"+. c #848484",
"@. c gray56",
"#. c #8E8E8E",
"$. c #8D8D8D",
"%. c #898989",
"&. c #919191",
"*. c #939393",
"=. c #959595",
"-. c #969696",
";. c #939393",
":. c #989898",
">. c gray60",
",. c #9B9B9B",
"<. c #9D9D9D",
"1. c gray61",
"2. c gray62",
"3. c #9F9F9F",
"4. c #9B9B9B",
"5. c #A0A0A0",
"6. c gray63",
"7. c #A3A3A3",
"8. c #A7A7A7",
"9. c #A4A4A4",
"0. c gray63",
"q. c #AAAAAA",
"w. c #A9A9A9",
"e. c #ACACAC",
"r. c #AEAEAE",
"t. c #B7B7B7",
"y. c #B5B5B5",
"u. c gray73",
"i. c #BBBBBB",
"p. c #B8B8B8",
"a. c #BCBCBC",
"s. c gray75",
"d. c gray",
"f. c #BDBDBD",
"g. c #C0C0C0",
"h. c #C1C1C1",
"j. c gray76",
"k. c #C3C3C3",
"l. c gray77",
"z. c #C5C5C5",
"x. c #C6C6C6",
"c. c #C2C2C2",
"v. c gray79",
"b. c #C8C8C8",
"n. c #CACACA",
"m. c #CBCBCB",
"M. c gray80",
"N. c #CDCDCD",
"B. c #CFCFCF",
"V. c #CACACA",
"C. c LightGray",
"Z. c #D2D2D2",
"A. c #D1D1D1",
"S. c #D7D7D7",
"D. c gray83",
"F. c #DADADA",
"G. c gray86",
"H. c #D9D9D9",
"J. c gainsboro",
"K. c #DDDDDD",
"L. c #DFDFDF",
"P. c #E1E1E1",
"I. c gray88",
/* pixels */
"X O + $ # # $ # $ # # $ $ $ # $ # # $ # + O O O O O O + O O O O # # # $ $ $ $ $ $ $ $ $ $ # # # # # + O O + O + # # # $ $ + O X ",
"O # 3 4 5 5 4 4 4 4 4 5 6 6 5 4 5 5 5 4 4 3 # # $ $ # $ $ $ $ $ 3 5 5 5 6 6 6 6 6 6 6 6 6 5 5 4 4 4 4 4 3 $ 3 4 4 5 5 5 4 3 # O ",
"+ $ 5 7 7 7 7 7 7 7 7 7 7 8 7 7 7 7 7 8 7 5 3 3 4 4 4 4 4 4 4 4 4 7 8 8 8 9 0 0 0 0 0 0 0 0 9 8 8 7 7 7 7 7 6 6 8 8 8 8 7 5 $ + ",
"# 4 7 0 0 +.0 +.+.0 +.0 +.0 +.0 0 0 9 9 8 6 5 5 5 6 7 6 6 7 0 8 5 7 +.+.+.+.%.%.=.:.=.:.=.:.=.:.@.+.0 +.0 0 9 9 9 %.%.%.+.8 4 # ",
"# 5 8 0 +.+.+.%.+.+.+.+.+.+.+.+.0 0 9 9 7 5 6 6 7 7 7 8 %.3.7.:.0 6 +.+.%.@.@.@.*.:.3.3.3.3.3.3.7.3.*.+.+.+.9 9 9 +.#.*.%.8 5 # ",
"# 5 7 0 +.+.+.+.%.+.+.%.+.+.+.0 9 9 0 7 5 5 6 6 7 9 *.3.3.3.:.*.#.9 7 +.+.%.%.#.@.#.*.=.3.3.7.3.3.3.:.$.+.7 6 8 9 0 9 0 0 8 5 $ ",
"# 4 7 +.+.+.%.+.+.+.+.+.+.+.0 9 0 9 7 5 5 6 6 8 *.3.3.3.:.*.#.@.#.+.7 8 %.+.+.+.+.%.%.+.%.#.*.*.=.=.@.#.7 5 5 5 5 7 9 9 8 7 4 # ",
"# 4 7 0 +.+.+.+.+.+.+.+.+.0 9 0 8 6 5 5 6 6 0 3.3.3.=.*.#.#.#.%.+.+.0 5 8 +.+.+.+.+.9 9 0 +.+.0 0 0 0 8 6 5 6 6 5 5 6 7 8 6 3 + ",
"# 3 7 0 +.+.+.+.+.%.+.+.0 9 9 7 5 5 5 6 7 %.3.7.=.*.#.*.#.#.+.+.+.+.9 5 5 8 +.+.+.0 9 0 0 +.+.9 9 9 7 5 5 6 6 7 6 6 5 5 5 4 $ + ",
"O 3 5 9 9 0 0 +.+.+.+.9 9 9 5 5 5 6 6 7 *.3.3.*.*.#.#.%.+.+.+.+.%.+.6 5 6 5 7 0 +.+.+.+.+.+.0 9 9 6 5 6 6 6 7 7 6 6 6 5 5 $ + O ",
"o # 3 7 9 0 9 0 0 0 9 9 9 6 5 5 6 6 7 *.7.3.*.#.#.#.+.+.0 +.+.+.+.6 5 5 6 6 5 6 8 +.+.+.+.0 9 9 6 5 6 6 6 7 7 9 9 7 5 5 5 3 # o ",
"O # 3 5 6 8 9 9 9 0 9 9 5 5 6 6 6 7 +.3.:.*.#.#.#.+.+.+.0 0 +.+.9 5 5 6 6 6 6 5 5 6 8 0 9 8 6 5 5 6 6 6 9 +.:.:.;.@.0 6 5 4 # O ",
"O # 3 5 5 5 8 9 9 9 9 6 5 6 6 7 7 9 7.3.*.*.#.*.+.9 +.+.0 9 0 9 7 5 5 6 7 7 6 6 6 5 5 5 5 5 5 5 7 6 8 %.7.3.3.3.3.4.;.9 4 3 $ O ",
"O $ 4 5 6 5 5 7 9 9 6 5 6 6 7 7 6 9 8 6 3 $ 3 $ $ $ 3 $ $ $ $ $ $ # $ # $ # $ # # # # $ 3 4 5 6 7 0 @.@.:.:.:.:.3.7.3.@.5 3 $ O ",
"+ $ 5 6 6 6 6 5 6 5 6 6 6 7 7 7 4 # O + + O O + O O O O O O O O O O O O O O + O O O O O O + # 4 9 @.@.@.@.@.@.@.@.:.3.4.6 3 # O ",
"O $ 8 +.9 8 6 6 5 6 6 6 7 7 6 3 + + O O o o o o O o o O o O o o o o O o o o o o O o O o O O + + 3 9 @.@.@.@.@.@.@.@.3.7.8 $ $ O ",
"+ 3 9 :.*.@.#.+.9 8 8 6 7 7 $ + + o O o o X o X X o X X o X X o o X o X o X o X o X o o o o O O + $ 0 %.+.%.$.@.@.@.3.3.7 3 # O ",
"+ 5 0 ;.#.#.@.@.#.0 9 9 6 3 + O O o o .                                                 . o o O + + 3 +.+.+.+.+.#.@.4.7.6 $ # O ",
"# 5 0 #.@.@.@.@.@.+.0 9 7 + + O o X                                                         o o + $ $ 7 +.+.+.+.+.@.3.3.5 3 $ O ",
"# 6 0 %.@.@.@.@.@.0 9 9 3 O O o o                                                             $ 8 8 8 7 9 0 +.%.+.%.3.:.5 3 # O ",
"$ 6 9 %.@.@.@.%.0 9 9 9 $ + o o .                   X .         . X .                         O 8 8 0 0 8 9 +.+.+.%.%.0 4 3 # + ",
"$ 6 8 +.@.#.+.+.9 9 9 0 $ + o O .             .     X X       . X X                           O 0 %.q.:.8 8 8 0 0 0 0 8 5 3 # $ ",
"$ 6 8 %.#.+.+.+.+.0 9 9 $ O o o .           X X .           X X X           . . X X           o 0 +.q.3.8 8 8 8 8 9 9 7 4 3 4 # ",
"$ 5 8 +.+.+.+.+.+.+.0 0 $ + o o           X X X X . . . . X X X X X . .   X X X X X X         o +.+.q.7.0 9 9 8 9 9 9 5 5 4 5 $ ",
"$ 5 8 0 +.0 +.+.0 0 +.+.$ O o o .       X X X X X X X X X X X X X X X X X X X X X X X X       O 0 +.q.3.9 9 9 9 9 9 7 5 5 6 5 $ ",
"$ 4 7 0 0 9 0 0 9 +.+.0 # + o O .     X X X X X . X X X X X X X X X X X X X X X X X X X X     o 0 +.q.4.9 9 0 9 9 9 5 5 7 8 6 $ ",
"$ 4 7 +.0 0 0 9 0 +.+.6 # + o o .   X X X X X X X X X X X X X X X X X X X X X X X X X X X X   o +.+.q.4.8 9 9 0 9 7 5 5 9 9 6 $ ",
"# 4 7 0 0 9 9 0 +.+.8 5 # O + $ # + + + # + + + # + + + + # + + # + + + # + + + + # + + + + + $ 0 +.q.4.9 8 9 9 9 5 5 7 %.9 6 $ ",
"# 4 7 0 9 9 +.+.+.0 6 5 # # # $ 6 +.0 +.0 0 0 +.0 +.0 +.0 0 0 0 0 +.0 0 0 0 0 0 0 0 +.0 +.0 0 0 +.+.q.4.8 8 9 0 6 5 6 9 $.9 6 # ",
"# 4 7 8 9 +.+.+.9 7 5 5 $ $ $ 7 +.%.%.%.%.%.%.+.+.+.+.0 0 +.+.+.+.0 +.+.+.+.+.+.+.0 +.+.+.+.%.+.+.$.q.3.9 9 9 7 5 5 7 #.;.0 5 $ ",
"# 4 7 0 +.+.+.9 8 5 5 6 $ $ 8 q.q.q.q.q.q.q.q.q.q.q.q.q.q.e.q.q.q.q.q.q.q.q.9.q.q.q.q.q.q.q.q.q.q.q.q.4.9 0 8 5 5 6 9 =.:.0 4 # ",
"# 4 7 0 +.+.0 9 5 5 5 6 4 8 8.8.9.9.7.7.7.7.7.3.7.3.:.=.=.=.:.:.:.3.3.3.3.:.:.:.:.:.=.=.=.4.4.3.4.3.3.@.9 9 6 5 6 7 #.3.:.8 4 # ",
"# 4 7 0 0 9 0 6 5 5 6 7 ;.3.3.*.@.@.@.@.#.%.+.+.%.+.5 5 6 6 7 #.:.#.*.#.#.#.+.9 7 7 7 5 5 7 0 9 9 9 0 9 7 5 5 6 6 9 3.3.*.7 4 # ",
"# 3 7 0 0 9 7 5 5 6 7 :.3.3.*.@.@.@.@.$.+.+.%.+.+.7 5 6 6 9 :.7.:.#.%.#.#.@.#.#.%.8 6 7 6 5 6 8 9 8 6 5 6 6 6 7 8 =.3.4.+.7 4 # ",
"# 4 6 9 9 8 5 5 5 8 -.3.:.*.@.@.@.@.$.+.+.+.+.+.9 5 6 6 0 3.3.:.%.+.%.+.+.%.%.%.*.#.8 6 7 7 5 5 5 5 6 6 6 6 7 8 *.7.4.%.+.7 4 # ",
"# 4 6 8 9 5 5 5 8 4.7.:.*.@.@.@.@.%.%.+.+.+.%.0 6 5 6 +.3.3.:.@.+.+.+.+.+.+.+.+.%.@.0 7 5 6 6 6 6 6 6 7 7 7 8 :.3.4.%.+.0 7 4 + ",
"5 0 9.D.H.L.H.J.H.H.L.H.H.H.L.H.J.J.J.J.L.J.L.J.P.P.P.P.P.P.P.L.L.L.L.L.P.P.P.L.J.J.J.J.J.L.L.H.L.J.H.J.H.L.H.H.J.J.J.H.D.7.9 3 ",
"5 9 3.C.C.C.D.C.C.C.C.C.C.C.C.C.C.C.D.D.D.D.D.S.H.J.J.H.J.H.H.H.D.C.C.D.H.H.H.H.C.C.C.C.C.C.C.C.C.C.C.C.C.C.C.C.C.C.C.C.M.4.6 + ",
"5 9 :.m.M.m.m.m.m.m.m.m.m.m.m.m.m.M.M.M.M.M.C.C.C.C.C.C.C.C.D.D.C.C.M.m.M.C.D.D.C.m.b.m.m.m.m.m.m.m.m.b.m.m.m.m.m.m.m.m.k.+.4 # ",
"4 8 *.d.k.z.j.j.j.j.j.k.l.k.j.l.z.b.b.m.M.M.m.M.M.M.M.M.M.m.z.b.m.m.z.j.j.m.M.M.M.m.m.m.m.z.z.z.j.j.a.d.j.j.d.j.j.g.g.j.u.0 4 + ",
"4 8 *.d.j.j.j.j.j.z.m.m.m.b.m.m.m.m.b.j.d.y.7.*.%.%.+.%.+.+.+.0 0 +.0 +.+.+.%.$.;.7.t.d.k.m.m.m.m.z.u.u.j.j.g.s.d.d.s.s.t.9 4 + ",
"4 8 @.d.j.j.j.j.j.z.m.m.m.m.m.m.j.q.7.%.7 4 3 3 $ $ $ $ $ $ $ $ $ 3 $ $ $ $ $ $ 3 3 4 7 %.7.q.j.m.m.z.u.s.j.j.j.g.s.s.d.t.0 4 + ",
"5 8 $.t.j.j.j.j.j.j.z.z.b.m.z.q.3.%.6 $ $ $ # # @ # # # # # # # + # # # @ + # # # # $ $ 3 6 #.3.e.z.m.j.g.g.j.j.j.j.j.g.u.9 4 + ",
"4 8 %.u.j.j.s.d.s.d.j.j.j.t.7.:.8 3 $ $ # # + # * - : : : : : : : : : : : : - * # # + # # $ 3 7 :.7.u.m.m.b.z.j.j.j.j.j.u.0 4 + ",
"4 8 #.a.j.j.s.s.s.s.s.d.9.=.+.4 3 # # # @ % y h j h r u h h r u j j h u r f j j f y % @ # # $ 3 4 $.3.e.b.m.m.m.m.b.k.j.u.0 4 + ",
"5 8 @.a.j.j.j.s.s.d.d.3.=.0 3 $ # # @ w f h j h h u r r u d r r i f r r t t d j j j j f q @ + # $ 4 0 3.q.b.m.b.m.m.z.j.u.0 4 + ",
"4 8 %.p.j.j.a.d.s.d.3.=.9 3 $ # # * a j j j f r r r r u r r r r r r N E _ _ s i j j j j j a * @ # $ 3 0 3.8.z.m.m.b.j.j.i.0 4 # ",
"4 8 %.t.j.j.u.u.s.7.=.+.3 $ # # , h j j v j r r u i h j u r t B U ` ' _ _ _ N r u j j j j j f : # # $ 3 +.3.e.m.m.z.j.j.u.0 4 + ",
"5 8 ;.d.j.z.b.m.t.=.;.4 $ # # e j j f m ` ^ t r j j R W i t _ ` O.O.O.X.` _ J r r i j j f u r r q # # $ 4 :.3.u.m.d.s.s.t.9 4 + ",
"4 8 =.z.m.m.m.z.7.4.7 3 # # % h f u r Y _ _ ^ p j Z } [ F t _ _ ..X.O.O.{ _ T h r r h f r r r r u % # # 3 7 3.3.l.s.s.d.t.0 4 # ",
"4 9 :.z.m.b.b.y.3.+.3 # # 1 r r r r M _ ) ^ ` ! l T O.X.) d v ) _ _ | O.{ _ W j u r u r r r r r u h ; + # 3 0 :.e.d.s.d.t.9 4 + ",
"4 8 -.z.m.m.k.3.:.4 $ # # ~ n r i d ! _ K l ^ _ ! / O.o.` H j K _ _ | O.} _ _ T s r r u g g u r r i a # # $ 4 *.=.u.j.j.t.0 4 + ",
"4 8 *.d.z.m.i.3.9 3 # @ D _ L j j S ` / l C H _ _ _ O.O.` _ v / _ _ ] O.O.{ _ _ _ Y c C ) _ Z f r r r w # # 3 9 :.r.m.m.t.9 3 + ",
"4 9 *.d.j.l.d.3.6 $ + * V _ ^ j C / _ _ _ _ _ _ _ _ X.O.` _ T ` _ _ `  .O.X._ _ _ _ ^ / _ _ / l h u r r & + $ 6 4.t.m.b.y.9 4 + ",
"4 8 *.d.j.j.u.3.5 $ # - i ( ` ) _ _ _ _ _ _ _ _ _ _ [ } _ ^ o..._ _ [ O.O.[ _ _ W / _ _ ! ! ` T j j f r = # $ 6 =.u.m.k.r.9 3 + ",
"4 9 *.d.j.j.t.-.6 $ # - r U _ _ ] | ` ` ` ` _ _ _ _ ` ` _ ` ..X.` ` O.O.} _ _ _ / ) _ _ I T _ _ Z j j h - # $ 5 @.u.m.s.y.9 4 + ",
"4 8 @.a.g.s.t.=.5 $ # 2 U G _ [ O.O.' ` O.X.' _ _ ' O. ._ _ ` ` _ `  .{ ` ` | o.O.O.' _ _ _ _ _ / l j j : # $ 6 *.y.z.i.y.9 3 + ",
"4 8 @.a.g.s.t.=.5 3 # 2 ` _ [ o.O.| ` _ X.O.X.` _ ' O.X._ _ _ _ _ _ _ ` ` ..O.O.o...` ` _ _ _ _ ` W j j : # $ 5 =.r.u.d.u.0 4 + ",
"5 8 #.d.m.m.t.=.6 $ # > T ` o.O.| _ _ _ ` X.O.X.` ' O.X._ _ ` _ _ _ _ ) ..O.o.] _ _ _ _ | } _ _ } [ H j : # $ 6 =.t.g.j.u.0 4 + ",
"4 8 @.k.m.m.s.=.5 $ # < R ' o.| _ _ _ _ _ ` X.O. .` o.X._ _ ] | _ _ ^ C o.o.' _ ` ` _ ' O.O.` ' O.X._ v : + $ 5 -.t.s.j.u.0 4 + ",
"4 8 @.j.j.j.u.=.5 $ # 2 _ _ _ _ _ _ | [ _ _ ' { [ _ ` ` ` ' O.O.' / ` ! Z _ _ ` o. .` _ ' ' _ _ K ! ` ^ : # $ 6 =.r.y.t.r.9 4 + ",
"$ 5 9 %.+.$.+.9 4 $ + 2 _ _ _ _ _ ' O.X._ ` K l ) _ _ ` ` o.O.| ) b ^ _ b P ` ` O.O.` _ ` _ _ _ A I _ _ > # $ 4 9 +.$.+.0 5 $ o ",
"# $ 4 6 7 7 7 5 4 $ # : C ^ ` _ _ _ ] ` _ R j l Z _ _ ` ..O...` ` T l b j K _ _ X.O.o.| ` _ ] | _ ` _ H : # $ 3 4 7 7 8 5 $ O o ",
"o + # $ 3 3 $ # $ $ # : j j P _ _ _ _ _ ^ j P _ b K _ { O.X.' _ _ _ b j j H _ _ ] X.O.o.` _  .O.] ^ b j : # $ 3 # $ 3 3 $ + o . "
};
