/* XPM */
static char *YWNhY2lhX2xlYXZlc19vcGFxdWU_[] = {
/* columns rows colors chars-per-pixel */
"64 64 5 1 ",
"  c #464646",
". c #587847",
"X c #49AD45",
"o c #ACEB1F",
"O c #9DBB61",
/* pixels */
"    ....     oooOXX.....       .   ....  ooO  .......           ",
"  .......   oooOOXX...            ..... oooOX........           ",
" ........   ooOOXXX       OOOOO   ..... ooOXX........     OOOX  ",
".........  OOOOXXX      OOoooOOO  .....oooXXX.......    OooOOX  ",
".........  OOOXXXX     OOooooOOX .....OooOXXX.......   OoooOXX .",
"........  OOOXXXX     OOoooooOXX .....OOOXXX ......   OooooOXX .",
"......   OOOXXXX     OOooooOOXXX ....OOOXXX .....    OOoooOXXX..",
"....     OXXXX      OOOooOOOXXX  ....OOXXX  ....     OooooOXXX..",
".           ....   OOOOOOOOXXXX  .. OXXX    ...     OOoooOXXXX..",
"           .....   OOOOOOXXXXXX  .         ..       OOOOOXXXX   ",
"          ......  OOOOOOXXXXXX                     OOOOOXXXXX   ",
" OOO     .......  OOOOXXXXXXX                      OOOOXXXXX    ",
"OooOO    ....... OOOXXXXXXX..         OOOO   ...  OOOOXXXXX     ",
"oooOOX   ......  XXXXXXX......      OOOOOOOX.... OOOOXXXXX     O",
"oooOOX  .......        .......     OOooooOOX....OOOXXXXX       o",
"ooOOXX  ......        ........    OOooooOOXX....XXXXX       ..Oo",
"ooOOXX  ....OOOOO    .........   OOooooOOXXX....          ....oo",
"oOOXXX ....OOooOOX   .........  OOooooOOXXXX....      ........oo",
"OOXXX     OOoooOXX  .........  OOOOOOOOXXXXX...   ............OO",
"OXXXX    OOoooOOXX  ........  OOOOOOOXXXXXX...    ...........OOO",
"XXXX    OOooooOXXX .......   OOOOOXXXXXXXX...       .........OOO",
"XXX.... OOoooOXXX ......    OOXXXXXXXXXX  ..       OOOX......OOX",
"XX.....OOoooOXXXX ...       XXXXXX..      .       OOOOOX     OXX",
"  .....OOOOOXXXX               .....             OOooOXX    OXXX",
" ......OOOOXXXXX              ......  OOOO      OOoooOXX    XXX ",
" .....OOOOXXXXX               ...... OooOX      OoooOXXX        ",
"......OOXXXXXX                ..... OoooOX     OooooOXXX        ",
".....OXXXXXX     ....     OOOO..... OooOXX  ...OoooOXXXX        ",
".... XXXXX     ......    OOooOX... OOoOXXX.....OooOOXXXX ...    ",
"              .......   OooooOX... OOOXXX......OOOOXXXX......   ",
"             ........  OooooOXX.. OOOXXX.......OOOOXXX.......   ",
"oooooOO     .. .....  OOooooOXX.  OXXXX........OOOXXX .......  O",
"oooooOOX   ..OOO...   OooooOXXX  XXXX    ......OOXXX ........OOO",
"OooOOOXX    OOoOX     OooOOXXXX         OOO    OXXX  ......OOOOO",
"OOOOXXX    OOooOX    OOOOOXXXXX        OOOOX   XX   ......OOOOOO",
"XXXXXX     OoooXX    OOOOXXXXX        OooOXXX       .....OOOOXXX",
"XXXXX.     OooOXX   OOOOXXXXX..      OoooOXXX      ....  XXXXXXX",
".......    OooXXX   OOOXXXXX....     OoooOXXX                   ",
".......   OOoOXXX...OOXXXXX.....    OoooOXXXX                  .",
".......   OOOOXXX...XXXX .......    OoooOXXXX     OOOOOOOO    ..",
".......   OOOXXX.....    .......   OOooOOXXXX    OOooooOOXX  ...",
".......  OOOOXXX.....    .......   OOooOXXXX    OOOooooOXXX ....",
"......   OOOXXX......    OOOOX.   OOOOOXXXXX.. OOOoooOXXXX .....",
".....    OOXXX......    OOOOOX.   OOOOOXXXX... OOOOOXXXXXX......",
"....     OXX  .....    OoooOXX    OOOOXXXX....OOOXXXXXXXX.......",
"..            ....    OooooOXX    OOOOXXX....OOXXXXXXX   ...OOOX",
"              ...    OooooOXXX   OOOOXXX.....XXXX         OOOOXX",
"                     OoooOXXX    OOOXXX ......          OOOOXXX ",
"     OoooOO         OOooOXXXX    OXXX   ......          XXXXXX  ",
"   OooooOOX         OOOOXXXX     XX     ......OOOOO             ",
" OOOoooOOXX  ....  OOOOXXXX             .....OoooOOX            ",
"OOOoooOXXXX.......OOOOXXXX       ...    ....OooooOXX        ....",
"OOOOOXXXXX........OOXXXX        .....   ...OooooOXXX       ....O",
"OOXXXXX  .........XXX           .....    .OOoooOXXX    OX  ...OO",
"XXXX     .........             .OOOO.     OOOOOXXXX   OOXX ...XX",
"        .........      ....   OoooOX.    OOOOOXXXX   OooXX......",
"       .........      ..... OooooOXX.   OOOOOXXXX    ooOXX..... ",
"      ........        ....OOOooOXXXX.  OOOOXXXXX    OooXXX....  ",
"    oooOO...         ...OOOOOOXXXXX.  OOOXXXX       OoOXX....   ",
"   OoooXX            ...OOXXXXXXXX..  OXXX         OOOXXX..     ",
"  OOOOXXX            ....XXXXXXX....               OOOXX        ",
"OOOOXXXX       OOO  .......     ...             ...OOXX         ",
"XXXXXXX       ooOOX ......     ...             ...OOXX          ",
"             oooOXX......      ..             ....OX.           "
};
