/* XPM */
static char *Z3Jhc3NfYmxvY2tfc2lkZQ__[] = {
/* columns rows colors chars-per-pixel */
"64 64 12 1 ",
"  c #684A3C",
". c #745445",
"X c #9C5A3C",
"o c #AF6645",
"O c #B07049",
"+ c #C27B50",
"@ c #269D4D",
"# c #22B14C",
"$ c #228B60",
"% c #A8E61D",
"& c #87C44C",
"* c #91D24D",
/* pixels */
"&&&&##&&&&&&&&&&&&&&&&&&&&&&&&&##&&&&&&&&&&&&&&&&&&&&&&##&&&&&&&",
"&&&&##&&&&&&&&&&&&&&&&&**&&&&&&##&&&&&&&&&&&&&&&&&&&&&&##&&&&&&&",
"&&&&##&&&&&&&&&&%%&&&&&%*&&&&&&##&&&&&*%%*&&&&&&&&&&&&&##&&&&&&&",
"&&&&##&&&&&*&&&&%%&&&&*%*&&&&&&##&&&&&%%%%*&&&&%*&&&&&&##&&&&&&&",
"&&&&##&&&&&%*&&&&&&&&&%%*&&&&&###&&&&&%%%%%&&&&%%&&&&&&###&&&%*&",
"&&&&##&&&&&%%*&&&&&&&*%%&&&&&&###&&&&&%%%%%&&&&%%*&&&&&###&&&%%&",
"&&&&###&&&&%%%%*&&&&&%%*&&&&&&#@#&&&&&%%%%%&&&*%%%&&&&&###&&&%%*",
"&&&&###&&&&*%%%%*&&&&%*&&&&&&&#@#&&&&&%%%%%&&&%%%%&&&&&###&&&*%%",
"&&&&###&&&&&%%%%%*&&&&&&&&&&&##@#&&&&&*%%%*&&*%%%%&&&&&###&&&&%%",
"&&&&#@#&&&&&*%%%%%&&&&&&&&&&&##$#&&&&&&*%%&&&%%%%*&&&&&#@#&&&&*%",
"&&&##@#&&&&&&*%%%%&&&&&&&&&&&##$##&&&&&&%*&&*%%%%&&&&&&#@#&&&&&&",
"&&&##@##&&&&&&*%%&&&&&&&&&&&###$##&&&&&&&&&&%%%%*&&&&&##@#&&&&&&",
"&&&##$##&&&&&&&&&&&&&&&&&&&&##@$##&&&&&&&&&&%%%%&&&&&&##$#&&&&&&",
"&&&##$##&&&&&&&&&&&&&&&&&&&###$$###&&&&&&&&&%%%*&&&&&###$#&&&&&&",
"&&###$@##&&&&&&&&&&&&&&&&&####$$###&&&&&&&&&&&&&&&&&&###$##&&&&&",
"&&###$$##&&&&&&&&&&&&&&&&#####$$####&&&&&&&&&&&&&&&&####$##&&&&&",
"&####$$###&&&&&&&&&&&&&#######$$#####&&&&&&&&&&&&&#####@$###&&&&",
"#####$$@####&&&&&&&&&########@$$#######&&&&&&&&&#######@$#####&&",
"####@$$$#####################$$$@######################$$@######",
"####@$$$#####################$$$@#####################@$$@######",
"####$$$$@###################@$$$$@####################$$$@######",
"###@$$$$$@##################$$$$$$@##################@$$$$######",
"##@$$$$ $$@################@$$$$$$$$@###############@$$$$$@#####",
"#@$$$$   $$$@############@$$$   $$$$$$$@##########@$$$$  $$$@###",
"$$$$$     $$$@@#######@@$$$$      $$$$$$$$@@####@$$$$$   $$$$$$$",
"$$$$       $$$$$$$$$$$$$$$$         $$$$$$$$$$$$$$$$       $$$$$",
"$            $$$$$$$$$$$$              $$$$$$$$$$$            $$",
"     ..                                                         ",
"   .XXXX.                    .XXXXX.                 .XXX.      ",
"XXXXXXXXXX.                .XXXXXXXX.           .XXXXXXXXXXXXXXX",
"XXXXXXXXXXXXXX.          .XXXXXXXXXXXXXXOO++++OXXXXXXXXXXXXXXXXX",
"XXXXXOO+++OOXXXXXXXXXXXXXXXXOO++++++oXO++++++++OXXXXXXO++OXXXXXX",
"XXXO+++++++++++OXXXXOO+++++++++++++XXO++++++++++XXXX++++++XXXXXX",
"XX++++++++++++++++++++++++++++++++XXO+++++++++++XXXX++++++XX++++",
"XX+++++++++++++++++++++++++++++++XXO+++++++++++OXXXX++++++++++++",
"++++++++++++++++++++++++++++++++XXX+++++++++++OXXXXX++++++++++++",
"++++++++++++++++++++++++++++++++XXXO+++++++OXXXXXXXo++++++++++++",
"++++++++++++++++++++++++++X+++++XXXXXXXXXXXXXXXXXXo+++++++++++++",
"+++++++X++++++++++++++++++++++++oXXXXXXXXXXXXXXXo+++++++++++++++",
"++++++++++++++++++++++XX+++++++++oXXXXXXXXXXXXo+++XXXXXXo+++++++",
"++++++++++++++++++++++XX++++++++++++++++++++++++oXO+++OXXXo+++++",
"++++++++++++++++++++++++++++++++++++++++++++++++XX+++++OXXX+++++",
"++++++++++++++++++++++++++++++++++++++++++++++++XX+++++OXXX+++++",
"+++++++++++++++++++++++++++++X++++++++oXXo++++++XXO+++OXXXX+++++",
"++++++++++++++++++++++++++++++++++++++XXXX++++++XXXXXXXXXXX+++++",
"++++++oXXXXXXXXo++++++++++++++++++++++XXXX++++++oXXXXXXXXX++++++",
"+++++oXXO++++OXXXo++++++++++++++++++++oXXo+++++++oXXXXXXX+++++++",
"+++++XXX++++++++OXo+++++++++++++++++++++++++++++++++++++++++++++",
"+++++XXX+++++++++OXo++++++++++++++++++++++++++++++++++++++++++++",
"+++++XXXO+++++++++XX++++++++++++++++++++++++++++++++++++++++++++",
"+++++oXXXXO++++++OXX++++++++++++++++++++++++++++++++++++++++++++",
"++++++XXXXXXXXXXXXXX++++++++++++++++++++++++++++++++++++++++++++",
"++++++oXXXXXXXXXXXXo++++++++++++++++++++++++++++++++++++++++++++",
"+++++++oXXXXXXXXXXo+++++++++++++++++++++++++++++++X+++++++++++++",
"+++++++++oXXXXXXXo++++++++++++++++++++++++++++++++++++++++++++++",
"++++++++++++++++++++++oXXo++++++++++++++++++++++X+++++++++++++++",
"++XXXX++++++++++++++++XXXX++++++++++++++++++++++++++++++++++++++",
"+X++OXX+++++++++++++++oXXo+++++++++++++XX+++++++++++++++++++++++",
"+X++OXX++++++++++++++++++++++++++++++++XX++++++++++++++oXX++++++",
"+XOOXXX++++++++++X+++++++++++++++++++++++++++++++++++++XXX++++++",
"+XXXXXX++++++++++++++++++++++++++++++++++++++++++++++++XXo++++++",
"++XXXX++++++++++++++++++++++++++++++++++++++++++++++++++++++++++",
"++++++++++++++++++++++++++++++++++++++++++++++++++++++++++++++++",
"++++++++++++++++++++++++++++++++++++++++++++++++++++++++++++++++"
};
