/* XPM */
static char *anVuZ2xlX2xvZ190b3A_[] = {
/* columns rows colors chars-per-pixel */
"64 64 7 1 ",
"  c #634234",
". c #7E4732",
"X c #A25334",
"o c #BD7144",
"O c #CA7A48",
"+ c #DF9556",
"@ c #EBB279",
/* pixels */
"                                                                ",
"                                                                ",
"             ......               .....X..X.XXXXXXXXX..         ",
"        .XXXXXXXXXXXXXXXXXXXXXXXXXXXXXXXXXXXXXXXXXXXXXXXX.      ",
"       XXXXXoooOOOOOOOOOOOOOOOOOOOOOOOOOOOOOOOOOOOOooXXXXX.     ",
"      XXoOOOOOOOOOOOOOOOOOOOOOOOOOOOOOOOOOOOOOOOOOOOOOoXXXX.    ",
"     XXoOOOOOOOOOOOOOOOOOOOOOOOOOOOOOOOOOOOOOOOOOOOOOOOoXXXX.   ",
"    .XXOOOOOOOOOOOOOOOOOOOOOOOOOOO+++@@@@@@@@@@@+OOOOOOOoXXXX   ",
"    XXXOOOOOOOOO+@@@@@@@@@@++++++@@@@@@@@@@@@@@@@+OOOOOOOXXXX   ",
"   .XXoOOOOOOO+@@@@@@@@++OOOOOOOOOOOOOOO++@@@@@@@@@OOOOOOoXXX.  ",
"   .XXOOOOOOO@@@@@@+OOOOOOOOOOOOOOOOOOOOOOOO++@@@@@@OOOOOOoXX.  ",
"   XXXOOOOOO@@@@@+OOOOOOOOOOOOOOOOOOOOOOOOOOOOOO+@@@@OOOOOOXX.  ",
"   XXXOOOOO@@@@+OOOOOOOOOOOOOOOOOOOOOOOOOOOOOOOOO+@@@+OOOOOXX.  ",
"   XXoOOOO+@@@+OOOOOOOOOOOOOOOOOOOOOOOOOOOOOOOOOOO+@@+OOOOOoX.  ",
"   XXoOOOO+@@+OOOOOOOOOOOOOOOOOOOOOOOOOOOOOOOOOOOOO@@@OOOOOoX.  ",
"   XXOOOOO@@@OOOOOOOOOOOOOOOOOOOOOOOOOOOOOOOOOOOOOO+@@OOOOOoX.  ",
"   XXOOOOO@@+OOOOOOOOOOOOOOOOOOOOO++@@@@@@++OOOOOOO+@@OOOOOoX   ",
"   XXOOOO+@@+OOOOOOO+@@@@@@@++++@@@@@@@@@@@@+OOOOOOO@@OOOOOOX   ",
"   XXOOOO+@@OOOOOO+@@@@@@++OOOOOOOOOOOOO+@@@@+OOOOOO@@OOOOOOX   ",
"   XXOOOO@@+OOOOO+@@@@+OOOOOOOOOOOOOOOOOOO+@@@OOOOOO@@OOOOOOX   ",
"   XXOOOO@@+OOOOO@@@+OOOOOOOOOOOOOOOOOOOOOO+@@+OOOOO@@OOOOOOX   ",
"   XXOOOO@@+OOOO+@+OOOOOOOOOOOOOOOOOOOOOOOOO+@@OOOOO@@OOOOOOX   ",
"   XXOOOO@@OOOOO@@OOOOOOOOOO+@@@@@@@+OOOOOOOO@@OOOOO+@OOOOOOX   ",
"   XXOOOO@@OOOOO@+OOOOOOO+@@@@@@@@@@@@+OOOOOO+@OOOOO+@OOOOOOX   ",
"   XXOOOO@@OOOOO@OOOOOOO+@+OOOOOOOOO+@@@+OOOOO@+OOOOO@OOOOOOX   ",
"   XXOOOO@+OOOOO@OOOOOO+@+OOOOOOOOOOOOO+@OOOOO+@OOOOO+OOOOOOX   ",
"   XXOOOO@+OOOOO@OOOOO+@+OOOOOOOOOOOOOOO++OOOOO@OOOOO+OOOOOOX   ",
"   XXOOOO@+OOOOO+OOOOO@+OOOOOOOOOOOOOOOOO+OOOOO@OOOOO+OOOOOOX   ",
"   XXOOOO@OOOOOO@OOOOO@OOOOOOOOOOOOOOOOOO@OOOOO@OOOOO+OOOOOOX   ",
"   XXOOOO@OOOOOO+OOOOO@OOOOOOO+@@@+OOOOOO@OOOOO+OOOOO+OOOOOOX   ",
"   XXOOOO@OOOOOO+OOOO+@OOOOOO+OOOOO@OOOOO+OOOOO@OOOOO+OOOOOOX.  ",
"  .XXOOOO+OOOOOO+OOOO+@OOOOOO@OOOOO@OOOOO@OOOOO+OOOOO@OOOOOOX.  ",
"  .XXOOOO+OOOOOO+OOOO+@OOOOOO@OOOOO@OOOOO+OOOOO+OOOOO@OOOOOOX.  ",
"  .XXOOOO+OOOOOO+OOOO@@OOOOOO+@OOOO+OOOOO+OOOOO+OOOOO@+OOOOOX.  ",
"  XXXOOOO+OOOOOO+OOOO@@OOOOOOO+@@@+OOOOOO+OOOOO@OOOOO@+OOOOOXX  ",
"  XXXOOOO+OOOOOO@OOOO@@+OOOOOOOOOOOOOOOOO+OOOOO@OOOOO@+OOOOOXX  ",
"  XXXOOOO+OOOOOO@+OOO+@+OOOOOOOOOOOOOOOO++OOOOO@OOOOO@+OOOOOXX  ",
"  XXXOOOO@OOOOOO@+OOOO@@+OOOOOOOOOOOOOO+++OOOOO@OOOOO@@OOOOOXX  ",
"  .XXOOOO@OOOOOO@+OOOO+@@+OOOOOOOOOOOO+@+OOOOO+@OOOOO@@OOOOOXX  ",
"  XXXOOOO@+OOOOO@@OOOOO+@@@+OOOOOOO+@@@+OOOOOO+@OOOOO@+OOOOOXX  ",
"  XXXOOOO@+OOOOO@@OOOOOOOO+++++@+@@@++OOOOOOOO@@OOOOO@@OOOOOXX  ",
"  XXXOOOO@+OOOOO@@+OOOOOOOOOOOOOOOOOOOOOOOOOOO@@OOOOO@@OOOOOXX. ",
"  .XXOOOO@@OOOOO@@+OOOOOOOOOOOOOOOOOOOOOOOOOO+@@OOOOO@@OOOOOXX. ",
"  .XXOOOO@@OOOOO+@@+OOOOOOOOOOOOOOOOOOOOOOOOO@@+OOOOO@@OOOOOXX. ",
"   XXOOOO@@OOOOOO@@@+OOOOOOOOOOOOOOOOOOOOOOO+@@OOOOOO@@OOOOOXX  ",
"   XXOOOO@@OOOOOO+@@@+OOOOOOOOOOOOOOOOOOOO+@@+OOOOOOO@+OOOOOXX  ",
"   XXOOOO@@OOOOOOO+@@@@@+OOOOOOOOOOOOOOO+@@+OOOOOOOO+@+OOOOOXX  ",
"   XXOOOO+@+OOOOOOOOO+@@@@+@@+++++++@+@@@+OOOOOOOOOO+@+OOOOOXX  ",
"   XXOOOO+@+OOOOOOOOOOOOOOOOOOOOOOOOOOOOOOOOOOOOOOOO+@+OOOOoXX  ",
"  .XXOOOOO@@OOOOOOOOOOOOOOOOOOOOOOOOOOOOOOOOOOOOOOO+@@+OOOOoXX  ",
"  XXXOOOOO+@@+OOOOOOOOOOOOOOOOOOOOOOOOOOOOOOOOOOOOO+@@OOOOOXX.  ",
"  XXXoOOOOO@@@@+OOOOOOOOOOOOOOOOOOOOOOOOOOOOOOOOOO+@@+OOOOOXX.  ",
"  XXXoOOOOOO@@@@@+OOOOOOOOOOOOOOOOOOOOOOOOOOOOO+++@@+OOOOOOXX   ",
"  XXXoOOOOOOO+@@@@@++OOOOOOOOOOOOOOOOO+++@@@@@@@@@@+OOOOOOoXX   ",
"  XXXXOOOOOOOOOO+@@@@@@+@++++++++++@@@@@@@@@@@@@++OOOOOOOOXX.   ",
"  XXXXOOOOOOOOOOOOOOOOOOOOOOOOOOOOOOOOOOOOOOOOOOOOOOOOOOOoXX    ",
"  XXXXoOOOOOOOOOOOOOOOOOOOOOOOOOOOOOOOOOOOOOOOOOOOOOOOOOoXXX    ",
"   XXXXoOOOOOOOOOOOOOOOOOOOOOOOOOOOOOOOOOOOOOOOOOOOOOOoXXXX.    ",
"    XXXXoOOOOOOOOOOOOOOOOOOOOOOOOOOOOOOOOOOOOOOOOOOOoXXXXXX     ",
"     XXXXXXooOOOOOooXXXooOOOOOOOOOOOOOOOOOOOOOOOOooXXXXXX.      ",
"      XXXXXXXXXXXXXXXXXXXXXXXXXXXXXXXXXXXXXXXXXXXXXXXXX.        ",
"         ..XXXXXXXX.    ............      .....   .....         ",
"                                                                ",
"                                                                "
};
