/* XPM */
static char *anVuZ2xlX2xlYXZlc19vcGFxdWU_[] = {
/* columns rows colors chars-per-pixel */
"64 64 6 1 ",
"  c #464646",
". c #22B14C",
"X c #228B60",
"o c #A8E61D",
"O c #9DBB61",
"+ c #546D8E",
/* pixels */
"     ooOO  .XXX...OOOoo  +++ ++OOO...X            ++++   ++++   ",
"    oooOO. X...XX....OOo++++   OO...X             ++++   ++++   ",
"   oooO..XXX.oo..X...OOO++++  OOO...+     OOOOooo+++++   ++++   ",
"   oOO..XooXXooo..  ...O++++ OOO...++  .OOOOOOooooo+++   +++++  ",
"  oOOO.XOooXXoooO..   ..+++  OO..+++++ ......OOOoooo+     ++++  ",
"  OOO..XOoO.XOooOO..  ++++        ++++ .......OOOooo      ++++  ",
"  OOO..XooO.X.OOOO..  +++         ++++   X.....OOOOOO       ++  ",
"  OO..XOoOO. ..OOO..  +++          +++    XXXXXX...OO   o   ++  ",
" OO...XOoO.. ...OO..  ++      oooo  ++     XooooXX... .OOo      ",
" O... .OOO..  ......         .OOoo  ++    ooooooOXXXXX..Oooo    ",
"+O.   .OO...  ......    ooO. .OOooo      ooooooOOXX...X.OOoo    ",
"+++   .OO...   .....   oooO.X...Ooo      ooooOOOOX.ooOX.OOooo   ",
"+++   ......    ....  oooO..X....Oo     ooOOOO..XOoooOX..OOoo+  ",
"+++   .....+      ..  ooO...XX...OO    OOOO....X.oooOOX..OOOo+  ",
" ++   .....++      ++ooO...X  ...OO   OOOO....XXoooOOOX...OOO++ ",
"    ++ ...+++     +++oOO...X  X...O  OOOO....  .ooOOO.X...OOO+++",
"   +++ .. +++   ++++OOO...X   X...O  OO....X  .OoOOO.. ....OO+++",
"  ++++     ++   ++++OO....     ...O++O...+++  .OOOO...  ....O+++",
"  ++++      +  ++++OO....+     ...OO++  ++++  OOOO...   +...O+++",
" +++++         +++OO...++++     ...O++  ++++ .OOO...   +++..O ++",
" +++++         +++O... +++++     ...+   ++++ .OO....  +++++     ",
"+++++         +++++    +++++     +++     +++ .....   ++++++     ",
"+++++      ooooo++      +++++    ++   oooo+  ....    ++++++     ",
"++++     .oooooooo      +++++    +   ooooo.  ..    oooO+++    ++",
" +oooo.  .OOooooooo      ++++        oOOooo       oooO.++     ++",
" ooooO.XXX.OOOOOOOoo      +ooO. ooOO OOOOOOO     oOOO.XXooo  +++",
"ooooOO.XOOX.OOOOOOOO      oooOOXooOOXX...OOO    OOO...X.OOoo +++",
"ooOOO.XOooOX...OOOOOO++  oooOOOXooOOOXX...OO   OOO...X ..Ooo ++O",
"oOOO..XOooo.X.....OOO+++ oooOO.XooOOO. X....O  O....X  ...Oo   O",
"OOOO.X.OoooO.X.....OO++++ooOO..X.oOOO.  XX...  ....X    ...O  OO",
"OOO..X.OoooO. .......+++oOOOO..X..OOO.    ...    ++++   ...O  OO",
"OO...X.OoooO.. ...... ++OOOO... ...OO.           +++++   ...  OO",
".....X.OOooO..   .... +OOOO...  X..OO.++          ++++        O.",
"..... ..OOOO..    ...  OOO....   .....+++  ooO    +++ooo     OO.",
"....X ...OOO..        OOO....     ....+++ooooOO    +Oooooo ++O..",
"...X  ....OO..   ++   O....++     ....+++oooOOOOX.. Oooooo+++...",
"..+++  .......   +++  .....++      .. ++oooOOO.XOOOX.OOoooo++...",
" ++++   ......+  ++++ ... +++      ..  +ooOOOOXOooO.X.OOOoo++...",
" ++++    .....+  +++++     ++  ++++    ooOOO..OOooO.X..OOOO+    ",
" +++++    ....+  +++++        +++++    OOO....OoooO.X...OOOO    ",
"   +++    +++++  +++++        +++++   OOO....OOooOO. ....OOO    ",
"   +++   ++++++   ++++       ++++++   OO.....OOooO.X X.......   ",
"         +++++     +++       +++++    O..... OOOOO.   .......   ",
"         +++++     +++    ooo++++    O..... .OOOO..    .......  ",
"++       ++++ oooO  ++   Ooooo++     .....  .OOO...     +.....  ",
"++       +++ ooooOO      Oooooo      ...X   ......     +++++   +",
"++          ooooOO. OOOOOX.Ooooo +++ ..     ......     +++++  ++",
"+    ++     oooOO..XOoooO.X..Ooo +++++     ......++    +++++  ++",
"    ++++   oooOO..XXOoooO.X...OOo+++++     .....++++  ++++    ++",
"   +++++  ooOOO...XXOoooO.X...OOO++++++    ...  ++++  ++++  oo. ",
" ooo++++  OOOO....X.OooOO. ....OO +++++         ++++oooO+  oooo.",
"ooooo+++ OOOOO...XX.OooOO. .....O +++++         +++ooooOO ooooO.",
"ooooo++  OOO.....X ..OOO.. X....O  ++++          +oooOO..XoooOOX",
"OOOoo++  OO.....X  ...OO..  X....   +++ooo   ++  oooOO..XXoooOOX",
".OOOOo   OO....X    ..OO..   ....   ++.Oooo +++  ooOO...XXooOOOX",
"..OOOO   .....      ...O..    ...    +..OOo++++ ooOOO...XoooOO.X",
"...OOO   ...++     ++..O..    ...     ..OOOo++  OOO....XXooOOO.X",
"....OO   ..+++     +++....            ...OOO++  OO.....X oOOO.. ",
" .....O   ++++    ++++.... +++     ooO ...OO+  OO.....X  OOO... ",
"  .....++  +++    +++++..  +++    ooOO. ...O   O......   OO...X ",
"   ....++   ++    ++++     ++++  ooOO..  ..O  .....     ......  ",
"     ++++   ++ oooooo      +++++ oOO...   ..  ...   ++  .....   ",
"    +++++     Oooooooo      ++++oOO....            +++  .....   ",
"    ++++      OOOOOoooo      +++OOO....            +++  ...++   "
};
